<?xml version="1.0" encoding="utf-8"?>
<!-- Generator: Adobe Illustrator 16.0.0, SVG Export Plug-In . SVG Version: 6.00 Build 0)  -->
<!DOCTYPE svg PUBLIC "-//W3C//DTD SVG 1.1//EN" "http://www.w3.org/Graphics/SVG/1.1/DTD/svg11.dtd">
<svg version="1.1" id="Layer_1" xmlns="http://www.w3.org/2000/svg" xmlns:xlink="http://www.w3.org/1999/xlink" x="0px" y="0px"
	 width="40px" height="40px" viewBox="0 0 40 40" enable-background="new 0 0 40 40" xml:space="preserve">
<g id="Layer_1_1_">
</g>
<g id="Layer_1_2_">
</g>
<g id="Layer_3" display="none">
</g>
<g id="Layer_1_3_">
</g>
<g id="Layer_3_1_" display="none">
</g>
<g>
	<g>
		<path fill="#FF64D3" d="M35.543,34.281c0,2.962-2.424,5.385-5.385,5.385H5.477c-2.962,0-5.385-2.423-5.385-5.385V9.601
			c0-2.962,2.423-5.385,5.385-5.385h24.681c2.961,0,5.385,2.423,5.385,5.385V34.281z"/>
		<path fill="#D74CA9" d="M30.158,5.655c2.176,0,3.943,1.77,3.943,3.945v24.681c0,2.176-1.768,3.945-3.943,3.945H5.477
			c-2.175,0-3.945-1.77-3.945-3.945V9.601c0-2.176,1.77-3.945,3.945-3.945H30.158 M30.158,4.216H5.477
			c-2.962,0-5.385,2.423-5.385,5.385v24.681c0,2.962,2.423,5.385,5.385,5.385h24.681c2.961,0,5.385-2.423,5.385-5.385V9.601
			C35.543,6.639,33.119,4.216,30.158,4.216L30.158,4.216z"/>
	</g>
	<g>
		<g>
			<g>
				<path fill="#B1FFFF" d="M23.951,12.691V4.475c0-1.98,1.619-3.601,3.6-3.601h8.217c1.98,0,3.6,1.62,3.6,3.601v8.217
					c0,1.979-1.619,3.6-3.6,3.6H23.951V12.691z"/>
				<path fill="#6DA2FF" d="M35.768,16.831H23.41V4.475c0-2.283,1.857-4.141,4.141-4.141h8.217c2.283,0,4.141,1.857,4.141,4.141
					v8.217C39.908,14.974,38.051,16.831,35.768,16.831z M24.49,15.751h11.277c1.688,0,3.061-1.372,3.061-3.06V4.475
					c0-1.688-1.373-3.061-3.061-3.061h-8.217c-1.688,0-3.061,1.373-3.061,3.061V15.751z"/>
			</g>
		</g>
		<g>
			<g>
				<g>
					<g>
						<path fill-rule="evenodd" clip-rule="evenodd" fill="#1950A7" d="M31.156,4.445h-5.225c-0.066,0-0.121,0.055-0.121,0.121
							v0.998c0,0.067,0.055,0.122,0.121,0.122h1.902v5.034c0,0.066,0.053,0.121,0.121,0.121h1.156c0.066,0,0.121-0.055,0.121-0.121
							V5.687h1.924c0.068,0,0.121-0.055,0.121-0.122V4.566C31.277,4.5,31.225,4.445,31.156,4.445z"/>
						<path fill="#001E6B" d="M29.111,10.948h-1.156c-0.127,0-0.229-0.103-0.229-0.228V5.792h-1.795
							c-0.125,0-0.227-0.102-0.227-0.228V4.566c0-0.125,0.102-0.228,0.227-0.228h5.225c0.127,0,0.229,0.103,0.229,0.228v0.998
							c0,0.126-0.102,0.228-0.229,0.228h-1.818v4.929C29.338,10.846,29.236,10.948,29.111,10.948z M25.932,4.552l-0.014,1.013
							l1.916,0.016c0.059,0,0.105,0.047,0.105,0.106v5.034l1.172,0.015c0.008,0,0.014-0.007,0.014-0.015V5.687
							c0-0.06,0.049-0.106,0.107-0.106h1.924l0.016-1.014L25.932,4.552z"/>
					</g>
					<g>
						<path fill-rule="evenodd" clip-rule="evenodd" fill="#1950A7" d="M36.934,6.651h-0.973h-0.154c-0.193,0-0.508,0-0.592,0
							c-0.121,0-0.207,0.037-0.252,0.15c-0.016,0.039-0.063,0.154-0.119,0.289c-0.004,0.007-0.01,0.015-0.012,0.021l-1.258,2.739
							l-1.27-2.739c-0.004-0.008-0.008-0.015-0.014-0.022c-0.055-0.135-0.102-0.25-0.117-0.288c-0.047-0.113-0.131-0.15-0.254-0.15
							c-0.082,0-0.389,0-0.584,0h-0.16h-0.965c-0.066,0-0.121,0.055-0.121,0.12v6.153c0,0.066,0.055,0.121,0.121,0.121h1.125
							c0.068,0,0.121-0.055,0.121-0.121V8.428l1.502,3.239c0.025,0.056,0.086,0.067,0.146,0.067s0.986,0,0.986,0v-0.002
							c0.045-0.002,0.086-0.027,0.104-0.069l1.49-3.243v4.505c0,0.066,0.055,0.121,0.121,0.121h1.127
							c0.066,0,0.121-0.055,0.121-0.121V6.771C37.055,6.706,37,6.651,36.934,6.651z"/>
						<path fill="#001E6B" d="M36.934,13.152h-1.127c-0.125,0-0.229-0.103-0.229-0.228V8.906l-1.285,2.802
							c-0.031,0.069-0.096,0.117-0.172,0.129c-0.01,0.002-0.02,0.004-0.029,0.004h-0.986c-0.121,0-0.203-0.044-0.242-0.129
							L31.564,8.91v4.015c0,0.125-0.102,0.228-0.229,0.228h-1.125c-0.127,0-0.229-0.103-0.229-0.228V6.771
							c0-0.125,0.102-0.227,0.229-0.227h1.709c0.178,0,0.293,0.07,0.352,0.217l0.117,0.288c0.002,0.001,0.016,0.024,0.016,0.025
							l1.17,2.522l1.16-2.529c0.004-0.005,0.018-0.031,0.021-0.036c0.045-0.116,0.092-0.23,0.107-0.269
							c0.061-0.148,0.174-0.219,0.352-0.219h1.719c0.125,0,0.227,0.102,0.227,0.227v6.153C37.16,13.05,37.059,13.152,36.934,13.152z
							 M35.686,8.313c0.006,0,0.014,0.001,0.021,0.002c0.049,0.011,0.084,0.054,0.084,0.104v4.505l1.143,0.015
							c0.008,0,0.014-0.007,0.014-0.015V6.771l-1.732-0.015c-0.102,0-0.131,0.029-0.154,0.085c-0.014,0.038-0.063,0.153-0.117,0.29
							c-0.002,0.003-0.012,0.021-0.016,0.023L33.67,9.896c-0.016,0.037-0.055,0.062-0.096,0.062l0,0
							c-0.041,0-0.08-0.024-0.096-0.062l-1.271-2.739c-0.004-0.007-0.012-0.019-0.014-0.027l-0.119-0.288
							c-0.021-0.056-0.053-0.085-0.154-0.085h-1.709l-0.016,6.168l1.141,0.015l0.016-4.512c0-0.05,0.035-0.094,0.084-0.104
							s0.098,0.015,0.119,0.06l1.502,3.239l0,0c0,0,0.012,0.006,0.049,0.006h0.971c0.004-0.001,0.008-0.001,0.012-0.001l1.5-3.252
							C35.605,8.337,35.645,8.313,35.686,8.313z"/>
					</g>
				</g>
			</g>
		</g>
	</g>
	<g>
		<g>
			<path fill="#FFFFFF" d="M30.973,23.678v-0.574c0-0.639-0.52-1.157-1.158-1.157s-1.158,0.519-1.158,1.157v0.574
				c0,0.64,0.52,1.157,1.158,1.157S30.973,24.317,30.973,23.678z M6.977,23.678v-0.574c0-0.639-0.518-1.157-1.157-1.157
				s-1.157,0.519-1.157,1.157v0.574c0,0.64,0.518,1.157,1.157,1.157S6.977,24.317,6.977,23.678z M10.908,25.293v-3.384
				c0-0.64-0.519-1.157-1.157-1.157c-0.64,0-1.157,0.518-1.157,1.157v3.384c0,0.64,0.518,1.158,1.157,1.158
				C10.389,26.451,10.908,25.933,10.908,25.293z M15.138,30.172V16.734c0-0.639-0.519-1.157-1.158-1.157s-1.158,0.519-1.158,1.157
				v13.438c0,0.64,0.519,1.158,1.158,1.158S15.138,30.812,15.138,30.172z M22.908,28.229v-9.678c0-0.639-0.52-1.158-1.158-1.158
				s-1.158,0.52-1.158,1.158v9.678c0,0.64,0.52,1.157,1.158,1.157S22.908,28.869,22.908,28.229z M18.977,34.725V12.268
				c0-0.64-0.518-1.158-1.157-1.158s-1.157,0.519-1.157,1.158v22.457c0,0.639,0.518,1.157,1.157,1.157S18.977,35.363,18.977,34.725z
				 M27.037,25.293v-3.805c0-0.639-0.518-1.157-1.158-1.157c-0.639,0-1.158,0.519-1.158,1.157v3.805c0,0.64,0.52,1.158,1.158,1.158
				C26.52,26.451,27.037,25.933,27.037,25.293z"/>
			<path fill="#D74CA9" d="M17.82,11.109c0.64,0,1.157,0.519,1.157,1.158v22.457c0,0.639-0.518,1.157-1.157,1.157
				s-1.157-0.519-1.157-1.157V12.268C16.663,11.628,17.18,11.109,17.82,11.109 M13.98,15.577c0.64,0,1.158,0.519,1.158,1.157v13.438
				c0,0.64-0.519,1.158-1.158,1.158s-1.158-0.519-1.158-1.158V16.734C12.822,16.096,13.34,15.577,13.98,15.577 M21.75,17.394
				c0.639,0,1.158,0.52,1.158,1.158v9.678c0,0.64-0.52,1.157-1.158,1.157s-1.158-0.518-1.158-1.157v-9.678
				C20.592,17.913,21.111,17.394,21.75,17.394 M25.879,20.331c0.641,0,1.158,0.519,1.158,1.157v3.805
				c0,0.64-0.518,1.158-1.158,1.158c-0.639,0-1.158-0.519-1.158-1.158v-3.805C24.721,20.85,25.24,20.331,25.879,20.331 M9.75,20.752
				c0.639,0,1.157,0.518,1.157,1.157v3.384c0,0.64-0.519,1.158-1.157,1.158c-0.64,0-1.157-0.519-1.157-1.158v-3.384
				C8.593,21.27,9.111,20.752,9.75,20.752 M29.814,21.946c0.639,0,1.158,0.519,1.158,1.157v0.574c0,0.64-0.52,1.157-1.158,1.157
				s-1.158-0.518-1.158-1.157v-0.574C28.656,22.465,29.176,21.946,29.814,21.946 M5.82,21.946c0.639,0,1.157,0.519,1.157,1.157
				v0.574c0,0.64-0.518,1.157-1.157,1.157s-1.157-0.518-1.157-1.157v-0.574C4.663,22.465,5.181,21.946,5.82,21.946 M17.82,10.39
				c-1.035,0-1.877,0.842-1.877,1.878v22.457c0,1.035,0.842,1.877,1.877,1.877s1.877-0.842,1.877-1.877V12.268
				C19.697,11.231,18.855,10.39,17.82,10.39L17.82,10.39z M13.98,14.857c-1.035,0-1.878,0.842-1.878,1.877v13.438
				c0,1.035,0.843,1.878,1.878,1.878s1.878-0.843,1.878-1.878V16.734C15.858,15.699,15.015,14.857,13.98,14.857L13.98,14.857z
				 M21.75,16.674c-1.035,0-1.877,0.843-1.877,1.878v9.678c0,1.035,0.842,1.878,1.877,1.878s1.879-0.843,1.879-1.878v-9.678
				C23.629,17.517,22.785,16.674,21.75,16.674L21.75,16.674z M25.879,19.61c-1.035,0-1.877,0.843-1.877,1.878v3.805
				c0,1.035,0.842,1.878,1.877,1.878s1.879-0.843,1.879-1.878v-3.805C27.758,20.453,26.914,19.61,25.879,19.61L25.879,19.61z
				 M9.75,20.031c-1.035,0-1.878,0.843-1.878,1.878v3.384c0,1.035,0.843,1.878,1.878,1.878s1.877-0.843,1.877-1.878v-3.384
				C11.627,20.874,10.786,20.031,9.75,20.031L9.75,20.031z M29.814,21.227c-1.035,0-1.877,0.842-1.877,1.877v0.574
				c0,1.035,0.842,1.877,1.877,1.877s1.879-0.842,1.879-1.877v-0.574C31.693,22.068,30.85,21.227,29.814,21.227L29.814,21.227z
				 M5.82,21.227c-1.035,0-1.877,0.842-1.877,1.877v0.574c0,1.035,0.842,1.877,1.877,1.877s1.877-0.842,1.877-1.877v-0.574
				C7.697,22.068,6.855,21.227,5.82,21.227L5.82,21.227z"/>
		</g>
	</g>
</g>
</svg>
