<?xml version="1.0" encoding="utf-8"?>
<!-- Generator: Adobe Illustrator 16.0.0, SVG Export Plug-In . SVG Version: 6.00 Build 0)  -->
<!DOCTYPE svg PUBLIC "-//W3C//DTD SVG 1.1//EN" "http://www.w3.org/Graphics/SVG/1.1/DTD/svg11.dtd">
<svg version="1.1" id="Layer_1" xmlns="http://www.w3.org/2000/svg" xmlns:xlink="http://www.w3.org/1999/xlink" x="0px" y="0px"
	 width="40px" height="40px" viewBox="0 0 40 40" enable-background="new 0 0 40 40" xml:space="preserve">
<g id="Layer_1_1_">
</g>
<g>
	<path fill="#2E3B51" d="M39.998,35.113c0,2.688-2.2,4.887-4.887,4.887H4.889c-2.688,0-4.887-2.199-4.887-4.887V4.888
		C0.002,2.199,2.201,0,4.889,0h30.223c2.687,0,4.887,2.199,4.887,4.888V35.113z"/>
	<g>
		<linearGradient id="SVGID_1_" gradientUnits="userSpaceOnUse" x1="19.9995" y1="-7.314" x2="19.9995" y2="37.659">
			<stop  offset="0.0376" style="stop-color:#0F1D36"/>
			<stop  offset="0.4317" style="stop-color:#122038"/>
			<stop  offset="0.7046" style="stop-color:#1B2940"/>
			<stop  offset="0.9401" style="stop-color:#2A374E"/>
			<stop  offset="0.9839" style="stop-color:#2E3B51"/>
		</linearGradient>
		<path fill="url(#SVGID_1_)" d="M12.509,30.272l-6.404-8.165l-6.103,7.269v5.737C0.002,37.801,2.201,40,4.889,40h7.155h5.96h17.107
			c2.687,0,4.887-2.199,4.887-4.887V22.111L29.795,9.371L12.509,30.272z"/>
		<linearGradient id="SVGID_2_" gradientUnits="userSpaceOnUse" x1="10.9307" y1="-7.3125" x2="10.9307" y2="37.657">
			<stop  offset="0.0376" style="stop-color:#0F1D36"/>
			<stop  offset="0.4317" style="stop-color:#122038"/>
			<stop  offset="0.7046" style="stop-color:#1B2940"/>
			<stop  offset="0.9401" style="stop-color:#2A374E"/>
			<stop  offset="0.9839" style="stop-color:#2E3B51"/>
		</linearGradient>
		<circle fill="url(#SVGID_2_)" cx="10.931" cy="13.229" r="5.716"/>
	</g>
	<g>
		<g>
			<rect x="28.532" y="16.096" fill="#FFAE66" width="7.809" height="7.809"/>
			<path fill="#FF701C" d="M36.341,24.246h-7.809c-0.188,0-0.342-0.153-0.342-0.342v-7.809c0-0.188,0.153-0.342,0.342-0.342h7.809
				c0.188,0,0.342,0.153,0.342,0.342v7.809C36.683,24.093,36.529,24.246,36.341,24.246z M28.874,23.563h7.125v-7.125h-7.125V23.563z
				"/>
		</g>
		<g>
			<circle fill="#FF6D95" cx="8.484" cy="20" r="4.832"/>
			<path fill="#D3487A" d="M8.481,25.173c-2.852,0-5.171-2.32-5.171-5.173s2.319-5.173,5.171-5.173c2.854,0,5.176,2.32,5.176,5.173
				S11.335,25.173,8.481,25.173z M8.481,15.511c-2.475,0-4.487,2.014-4.487,4.489s2.013,4.489,4.487,4.489
				c2.477,0,4.492-2.014,4.492-4.489S10.958,15.511,8.481,15.511z"/>
		</g>
		<g>
			<polygon fill="#4DCCBE" points="14.471,23.928 20.147,15.704 25.824,23.928 			"/>
			<path fill="#00A28E" d="M25.831,24.27c-0.001,0.001-0.004,0.001-0.007,0H14.471c-0.127,0-0.244-0.07-0.303-0.183
				c-0.06-0.112-0.051-0.248,0.021-0.354l5.677-8.224c0.128-0.185,0.436-0.185,0.563,0l5.645,8.177c0.062,0.062,0.1,0.147,0.1,0.241
				C26.173,24.117,26.021,24.27,25.831,24.27z M15.122,23.586h10.052l-5.026-7.28L15.122,23.586z"/>
		</g>
	</g>
</g>
</svg>
