<?xml version="1.0" encoding="utf-8"?>
<!-- Generator: Adobe Illustrator 16.0.0, SVG Export Plug-In . SVG Version: 6.00 Build 0)  -->
<!DOCTYPE svg PUBLIC "-//W3C//DTD SVG 1.0//EN" "http://www.w3.org/TR/2001/REC-SVG-20010904/DTD/svg10.dtd">
<svg version="1.0" id="Layer_1" xmlns="http://www.w3.org/2000/svg" xmlns:xlink="http://www.w3.org/1999/xlink" x="0px" y="0px"
	 width="40px" height="40px" viewBox="-0.5 -0.516 40 40" enable-background="new -0.5 -0.516 40 40" xml:space="preserve">
<g id="Layer_1_1_">
</g>
<g id="Layer_1_2_">
</g>
<g id="Layer_3" display="none">
</g>
<g>
	<g>
		<g>
			<polygon fill="#FF8C96" points="7.073,12.433 7.073,26.245 7.073,26.245 19.5,34.024 31.925,26.245 31.925,26.245 31.925,12.433 
							"/>
			<path fill="#00825F" d="M19.5,34.834c-0.149,0-0.299-0.042-0.43-0.124L6.645,26.931c-0.236-0.147-0.38-0.406-0.38-0.686V12.433
				c0-0.447,0.361-0.81,0.809-0.81h24.852c0.448,0,0.81,0.362,0.81,0.81v13.813c0,0.279-0.145,0.538-0.379,0.686L19.93,34.71
				C19.798,34.792,19.648,34.834,19.5,34.834z M7.884,25.798L19.5,33.069l11.615-7.271V13.241H7.884V25.798z"/>
		</g>
		<g>
			<polygon fill="#FF8C96" points="19.5,20.21 7.073,12.433 19.5,4.944 31.925,12.433 			"/>
			<path fill="#00825F" d="M19.5,21.02c-0.149,0-0.299-0.04-0.43-0.123L6.645,13.118c-0.238-0.149-0.383-0.412-0.38-0.693
				c0.002-0.28,0.15-0.541,0.392-0.687l12.426-7.487c0.257-0.154,0.578-0.154,0.835,0l12.426,7.487
				c0.24,0.146,0.39,0.406,0.392,0.687c0.002,0.281-0.141,0.544-0.379,0.693L19.93,20.896C19.798,20.979,19.648,21.02,19.5,21.02z
				 M8.621,12.444L19.5,19.256l10.878-6.812L19.5,5.89L8.621,12.444z"/>
		</g>
		<g>
			<line fill="#FFA93D" x1="19.5" y1="20.21" x2="19.5" y2="34.024"/>
			<path fill="#00825F" d="M19.5,34.834c-0.447,0-0.81-0.363-0.81-0.81V20.21c0-0.446,0.362-0.809,0.81-0.809s0.81,0.362,0.81,0.809
				v13.814C20.31,34.471,19.947,34.834,19.5,34.834z"/>
		</g>
	</g>
	<g>
		<g>
			<path fill="#FFFFFF" d="M0.762,8.512C0.12,8.512-0.4,7.99-0.4,7.349V2.862c0-1.611,1.311-2.922,2.922-2.922H7.01
				c0.642,0,1.162,0.52,1.162,1.161c0,0.643-0.521,1.162-1.162,1.162H2.521c-0.324,0-0.599,0.273-0.599,0.599v4.486
				C1.923,7.99,1.403,8.512,0.762,8.512z"/>
			<path fill="#FFFFFF" d="M7.01,39.028H2.521c-1.611,0-2.922-1.311-2.922-2.922v-4.487c0-0.642,0.521-1.161,1.162-1.161
				s1.161,0.52,1.161,1.161v4.487c0,0.325,0.274,0.599,0.599,0.599H7.01c0.642,0,1.161,0.521,1.161,1.162
				C8.171,38.51,7.651,39.028,7.01,39.028z"/>
			<path fill="#FFFFFF" d="M36.478,39.028H31.99c-0.642,0-1.162-0.519-1.162-1.161c0-0.642,0.521-1.162,1.162-1.162h4.487
				c0.324,0,0.599-0.273,0.599-0.599v-4.487c0-0.642,0.52-1.161,1.162-1.161c0.642,0,1.162,0.52,1.162,1.161v4.487
				C39.4,37.718,38.09,39.028,36.478,39.028z"/>
			<path fill="#FFFFFF" d="M38.238,8.512c-0.643,0-1.162-0.521-1.162-1.163V2.861c0-0.324-0.274-0.598-0.599-0.598H31.99
				c-0.642,0-1.162-0.521-1.162-1.162S31.349-0.06,31.99-0.06h4.487c1.612,0,2.923,1.31,2.923,2.921v4.487
				C39.4,7.99,38.88,8.512,38.238,8.512z"/>
		</g>
	</g>
</g>
</svg>
