<?xml version="1.0" encoding="utf-8"?>
<!-- Generator: Adobe Illustrator 16.0.0, SVG Export Plug-In . SVG Version: 6.00 Build 0)  -->
<!DOCTYPE svg PUBLIC "-//W3C//DTD SVG 1.1//EN" "http://www.w3.org/Graphics/SVG/1.1/DTD/svg11.dtd">
<svg version="1.1" id="Layer_1" xmlns="http://www.w3.org/2000/svg" xmlns:xlink="http://www.w3.org/1999/xlink" x="0px" y="0px"
	 width="40px" height="40px" viewBox="0 0 40 40" enable-background="new 0 0 40 40" xml:space="preserve">
<g id="Layer_1_1_">
</g>
<g>
	<g>
		<path fill="#16162F" d="M39.999,33.924c0,3.34-2.734,6.074-6.076,6.074H6.077c-3.342,0-6.076-2.734-6.076-6.074V6.077
			c0-3.341,2.734-6.075,6.076-6.075h27.846c3.342,0,6.076,2.734,6.076,6.075V33.924z"/>
		<path fill="#415066" d="M33.923,1.627c2.453,0,4.451,1.997,4.451,4.45v27.847c0,2.453-1.998,4.449-4.451,4.449H6.077
			c-2.455,0-4.451-1.996-4.451-4.449V6.077c0-2.453,1.996-4.45,4.451-4.45H33.923 M33.923,0.002H6.077
			c-3.342,0-6.076,2.734-6.076,6.075v27.847c0,3.34,2.734,6.074,6.076,6.074h27.846c3.342,0,6.076-2.734,6.076-6.074V6.077
			C39.999,2.736,37.265,0.002,33.923,0.002L33.923,0.002z"/>
	</g>
	<g>
		<polygon fill="#00BB00" points="7.855,6.881 6.559,6.881 4.19,9.747 4.19,14.051 8.771,14.051 8.771,9.747 6.97,9.747 		"/>
		<polygon fill="#00BB00" points="12.761,9.747 13.646,6.881 12.35,6.881 9.981,9.747 9.981,14.051 14.562,14.051 14.562,9.747 		
			"/>
	</g>
	<g>
		<polygon fill="#FFFFFF" points="31.452,7.417 31.452,11.72 33.255,11.72 32.37,14.587 33.667,14.587 36.034,11.72 36.034,7.417 		
			"/>
		<polygon fill="#FFFFFF" points="25.663,11.72 27.464,11.72 26.579,14.587 27.876,14.587 30.243,11.72 30.243,7.417 25.663,7.417 
					"/>
	</g>
	<g>
		<g>
			<path fill="#FFFFFF" d="M22.442,30.5v-3.328h1.434l-0.561-1.549h-6.301l-0.539,1.549h1.436V30.5h-6.842v-3.328h1.391l5.428-14.63
				h4.666l5.428,14.63h1.391V30.5H22.442z M18.181,22.389h3.969l-1.973-5.533L18.181,22.389z"/>
		</g>
		<polygon fill="#00BB00" points="18.181,22.389 19.999,17.345 19.999,12.542 17.888,12.542 12.46,27.172 11.069,27.172 
			11.069,30.5 17.911,30.5 17.911,27.172 16.476,27.172 17.015,25.623 19.999,25.623 19.999,22.389 		"/>
	</g>
	<polygon fill="#415066" points="14.249,38.854 20.001,33.104 25.751,38.854 	"/>
</g>
</svg>
