<?xml version="1.0" encoding="utf-8"?>
<!-- Generator: Adobe Illustrator 16.0.0, SVG Export Plug-In . SVG Version: 6.00 Build 0)  -->
<svg version="1.2" baseProfile="tiny" id="Layer_1" xmlns="http://www.w3.org/2000/svg" xmlns:xlink="http://www.w3.org/1999/xlink"
	 x="0px" y="0px" width="150px" height="150px" viewBox="0 0 150 150" xml:space="preserve">
<g>
	<path fill="#00825F" d="M105.631,12.529c9.627,0,17.429,7.803,17.429,17.428c0,6.56-3.625,12.271-8.981,15.244
		c3.837,3.395,6.472,9.032,6.868,15.523c0.016,0.098,0.025,0.195,0.025,0.293c0,0.118-0.016,0.234-0.039,0.35l0.039,0
		c0,0-0.69,3.186-2.465,4.212c0,0-0.001,0-0.001,0c-2.12,1.688-7.087,2.873-12.875,2.873c-5.79,0-10.757-1.185-12.877-2.873
		c0,0,0,0,0,0c-1.775-1.026-2.466-4.212-2.466-4.212h0.039c-0.023-0.117-0.039-0.232-0.039-0.351c0-0.104,0.012-0.208,0.03-0.312
		c0.399-6.483,3.034-12.112,6.866-15.504c-1.123-0.624-2.17-1.369-3.124-2.216H56.432c-1.336,0.434-7.153-1.463-9.102,9.104v5.821
		l1.197-1.568c0.783-1.037,1.978-1.581,3.186-1.581c0.846,0,1.698,0.267,2.419,0.817c1.759,1.336,2.104,3.849,0.768,5.612
		L41.388,78.958L27.757,61.027c-1.336-1.759-0.998-4.272,0.761-5.608c0.727-0.551,1.579-0.817,2.423-0.817
		c1.209,0,2.402,0.545,3.19,1.581l1.235,1.628l0.039-7.248c3.21-18.982,15.864-19.505,18.775-19.505c0.17,0,0.307,0.002,0.406,0.002
		c0.085,0,0.144-0.001,0.172-0.006l0.978-0.078h32.499c-0.02-0.337-0.031-0.676-0.031-1.018
		C88.204,20.333,96.006,12.529,105.631,12.529 M105.631,9.529c-10.595,0-19.332,8.108-20.331,18.446H55.737
		c-0.08,0-0.16,0.003-0.239,0.01l-0.932,0.074l-0.11,0l-0.276-0.001c-3.936,0-7.7,1.073-10.888,3.104
		c-5.688,3.625-9.337,9.984-10.845,18.901c-0.027,0.16-0.041,0.322-0.042,0.484l-0.006,1.205c-0.473-0.099-0.961-0.15-1.458-0.15
		c-1.54,0-3.005,0.493-4.235,1.426c-3.075,2.336-3.674,6.737-1.338,9.813L39,80.774c0.567,0.746,1.45,1.185,2.388,1.185
		s1.821-0.438,2.389-1.184l13.513-17.768c2.335-3.08,1.732-7.482-1.341-9.817c-1.223-0.933-2.688-1.428-4.234-1.428
		c-0.434,0-0.863,0.041-1.283,0.12c1.229-5.706,3.458-5.764,5.104-5.807c0.396-0.01,0.8-0.021,1.215-0.089h35.659
		c-2.908,3.862-4.713,8.91-5.076,14.393c-0.03,0.217-0.045,0.428-0.045,0.639c0,0.077,0.002,0.154,0.006,0.231
		c-0.012,0.251,0.008,0.504,0.063,0.754c0.158,0.73,1.065,4.375,3.69,6.049c2.822,2.132,8.247,3.401,14.584,3.401
		c6.335,0,11.759-1.268,14.581-3.4c2.626-1.672,3.533-5.32,3.691-6.05c0.058-0.263,0.078-0.53,0.064-0.794
		c0.002-0.064,0.004-0.128,0.004-0.192c0-0.197-0.013-0.394-0.039-0.597c-0.367-5.634-2.252-10.811-5.293-14.715
		c4.647-3.842,7.419-9.599,7.419-15.748C126.06,18.693,116.896,9.529,105.631,9.529L105.631,9.529z"/>
	<path fill="#FFFFFF" d="M54.133,55.579c-1.752-1.336-4.275-0.999-5.605,0.764l-1.197,1.568v-5.821
		c1.948-10.567,7.766-8.67,9.102-9.104h38.105c3.315,0,6.007-2.687,6.007-6.006c0-3.317-2.691-6.004-6.007-6.004h-38.8l-0.978,0.078
		c-0.64,0.107-15.796-1.527-19.354,19.51l-0.039,7.248l-1.235-1.628c-1.338-1.758-3.846-2.104-5.613-0.764
		c-1.759,1.336-2.097,3.849-0.761,5.608l13.631,17.931l13.513-17.768C56.238,59.428,55.892,56.915,54.133,55.579z"/>
	<path fill="#FFFFFF" d="M120.968,93.38l-13.631-17.931L93.824,93.22c-1.338,1.759-0.999,4.272,0.761,5.608
		c1.759,1.339,4.275,0.995,5.611-0.761l1.19-1.567v5.826c-1.94,10.563-7.758,9.332-9.101,9.769l-44.246-0.007
		c-3.316,0-6.007,2.69-6.007,6.003c0,3.319,2.684,6.01,6.007,6.01l45.431,0.002l0.494-0.078c0.64-0.106,15.796,0.862,19.353-20.176
		l0.033-7.254l1.243,1.628c0.782,1.034,1.976,1.582,3.188,1.582c0.846,0,1.688-0.267,2.417-0.818
		C121.958,97.652,122.305,95.139,120.968,93.38z"/>
	<g>
		<path fill="#332E2F" d="M37.985,116.18L37.985,116.18l12.437,0.007c0.847,0,1.081,0.521,0.521,1.155l-3.807,4.327
			c-0.559,0.635-1.707,1.153-2.552,1.153h-0.001l-0.767-0.001c-0.845,0-1.994-0.521-2.551-1.155l-3.804-4.331
			C36.906,116.699,37.14,116.18,37.985,116.18 M37.987,114.335c-0.001,0-0.001,0-0.002,0l0,0c-1.143,0-2.064,0.533-2.467,1.423
			c-0.403,0.891-0.194,1.935,0.557,2.793l3.805,4.332c0.906,1.032,2.563,1.782,3.937,1.783h0.766c1.377,0,3.031-0.748,3.939-1.779
			l3.808-4.326c0.755-0.858,0.965-1.902,0.562-2.794c-0.403-0.891-1.326-1.424-2.467-1.424L37.987,114.335L37.987,114.335z"/>
		<path fill="#332E2F" d="M43.258,123.06C43.259,123.06,43.259,123.06,43.258,123.06l1.881,0c0.847,0,2.034,0.481,2.642,1.07
			l5.313,5.132c0.608,0.588,0.414,1.067-0.43,1.067c-0.002,0-0.002,0-0.002,0l-16.933-0.009c-0.845,0-1.038-0.48-0.431-1.067
			l5.317-5.128C41.225,123.538,42.413,123.06,43.258,123.06 M43.26,121.215C43.26,121.215,43.26,121.215,43.26,121.215h-0.002
			c-1.322,0-2.972,0.666-3.923,1.583l-5.318,5.126c-1.252,1.211-0.897,2.429-0.76,2.773c0.14,0.345,0.729,1.468,2.472,1.469
			l16.932,0.009c1.743,0,2.332-1.123,2.473-1.466c0.139-0.345,0.494-1.562-0.757-2.773l-5.313-5.134
			c-0.951-0.919-2.601-1.586-3.924-1.586L43.26,121.215L43.26,121.215z"/>
		<path fill="#3F323B" d="M35.729,131.244c-1.133-0.001-1.509-0.624-1.616-0.892c-0.105-0.268-0.271-0.976,0.546-1.763l5.317-5.127
			c0.782-0.755,2.194-1.325,3.282-1.325l1.882,0.001c1.088,0,2.5,0.571,3.282,1.328l5.313,5.134c0.814,0.788,0.65,1.496,0.542,1.763
			c-0.107,0.268-0.481,0.89-1.613,0.89L35.729,131.244z"/>
		<path fill="#3F323B" d="M43.826,123.628c-1.082-0.001-2.439-0.616-3.155-1.43l-3.699-4.214c-0.711-0.811-0.517-1.497-0.4-1.754
			c0.116-0.258,0.504-0.858,1.583-0.858l12.1,0.007c1.078,0.001,1.466,0.601,1.583,0.858c0.117,0.258,0.312,0.945-0.403,1.756
			l-3.703,4.209c-0.715,0.813-2.072,1.426-3.155,1.426H43.826z"/>
		<path fill="#332E2F" d="M57.641,117.829H30.76c-1.693,0-3.069-1.353-3.069-3.014V88.713c0-1.662,1.376-3.014,3.069-3.014h26.881
			c1.692,0,3.068,1.352,3.068,3.014v26.103C60.709,116.476,59.333,117.829,57.641,117.829z M30.76,88.033
			c-0.406,0-0.734,0.305-0.734,0.68v26.103c0,0.374,0.328,0.678,0.734,0.678h26.881c0.404,0,0.734-0.305,0.734-0.678V88.713
			c0-0.375-0.33-0.68-0.734-0.68H30.76z"/>
		<path fill="#706B6E" d="M59.425,114.715c0,1.013-0.845,1.833-1.888,1.833H30.862c-1.042,0-1.887-0.82-1.887-1.833V88.812
			c0-1.013,0.845-1.833,1.887-1.833h26.676c1.043,0,1.888,0.82,1.888,1.833V114.715z"/>
		<circle fill="#332E2F" cx="34.566" cy="92.771" r="1.324"/>
		<circle fill="#332E2F" cx="54.096" cy="92.771" r="1.324"/>
		<circle fill="#332E2F" cx="34.566" cy="110.645" r="1.324"/>
		<circle fill="#332E2F" cx="54.096" cy="110.645" r="1.324"/>
		<circle fill="#CCD5E2" cx="44.201" cy="101.763" r="5.088"/>
		<path fill="#332E2F" d="M44.201,110.552c-4.845,0-8.788-3.941-8.788-8.789c0-4.846,3.943-8.789,8.788-8.789
			c4.846,0,8.789,3.943,8.789,8.789C52.99,106.61,49.046,110.552,44.201,110.552z M44.201,96.074c-3.138,0-5.691,2.551-5.691,5.689
			c0,3.139,2.554,5.691,5.691,5.691s5.69-2.553,5.69-5.691C49.891,98.625,47.338,96.074,44.201,96.074z"/>
		<g>
			<path fill="#2F4A69" d="M44.201,98.741c-1.668,0-3.022,1.356-3.022,3.022c0,1.666,1.354,3.023,3.022,3.023
				c1.666,0,3.023-1.357,3.023-3.023C47.224,100.097,45.867,98.741,44.201,98.741z"/>
		</g>
		<circle fill="#2F4A69" cx="44.201" cy="101.763" r="2.005"/>
	</g>
	<g>
		<path fill="#00825F" d="M107.337,75.449l13.631,17.931c1.337,1.759,0.99,4.272-0.769,5.608c-0.729,0.551-1.571,0.818-2.417,0.818
			c-1.212,0-2.405-0.547-3.188-1.582l-1.243-1.628l-0.033,7.254c-3.557,21.038-18.713,20.069-19.353,20.176l-0.494,0.078
			l-43.064-0.002l3.969,3.834c1.251,1.211,0.896,2.428,0.757,2.773c-0.141,0.343-0.729,1.466-2.473,1.466l-16.932-0.009
			c-1.743-0.001-2.332-1.125-2.472-1.469c-0.138-0.344-0.492-1.562,0.76-2.773l5.318-5.126c0.082-0.08,0.176-0.154,0.268-0.229
			l-3.528-4.017c-0.201-0.229-0.36-0.473-0.481-0.722H30.76c-1.693,0-3.069-1.353-3.069-3.014V88.713
			c0-1.662,1.376-3.014,3.069-3.014h26.881c1.692,0,3.068,1.352,3.068,3.014v23.377l31.577,0.004
			c1.343-0.437,7.16,0.794,9.101-9.769V96.5l-1.19,1.567c-0.786,1.034-1.981,1.578-3.19,1.578c-0.846,0-1.697-0.266-2.421-0.817
			c-1.76-1.336-2.099-3.849-0.761-5.608L107.337,75.449 M107.337,72.449c-0.938,0-1.821,0.438-2.388,1.184L91.436,91.404
			c-1.131,1.488-1.617,3.328-1.366,5.181c0.251,1.855,1.21,3.5,2.7,4.632c1.226,0.934,2.691,1.428,4.235,1.428
			c0.436,0,0.864-0.039,1.282-0.115c-1.295,6.054-3.771,6.292-5.432,6.451c-0.296,0.028-0.599,0.058-0.907,0.114l-28.24-0.004
			V88.713c0-3.316-2.722-6.014-6.068-6.014H30.76c-3.347,0-6.069,2.698-6.069,6.014v26.103c0,3.316,2.723,6.014,6.069,6.014h3.322
			l1.363,1.551l-3.51,3.383c-2.065,1.998-2.109,4.433-1.463,6.047c0.659,1.627,2.382,3.354,5.256,3.355l16.932,0.009
			c2.864,0,4.59-1.719,5.25-3.327c0.517-1.287,0.601-3.071-0.393-4.746l35.955,0.002c0.156,0,0.312-0.012,0.466-0.037l0.343-0.054
			l0.04-0.001c3.879-0.103,7.454-1.165,10.622-3.158c5.967-3.752,9.78-10.314,11.334-19.504c0.027-0.161,0.041-0.323,0.042-0.486
			l0.006-1.213c0.476,0.102,0.964,0.155,1.458,0.155c1.533,0,2.995-0.493,4.228-1.425c1.492-1.134,2.452-2.777,2.707-4.63
			c0.254-1.855-0.229-3.697-1.36-5.186l-13.631-17.932C109.158,72.887,108.274,72.449,107.337,72.449L107.337,72.449z"/>
	</g>
	<g>
		<path fill="#9B9498" d="M117.577,61.313c-2.451-1.356-6.885-2.262-11.946-2.262c-5.064,0-9.497,0.905-11.948,2.262l-3.395,0.056
			c0,0,0.69,3.186,2.466,4.212c0,0,0,0,0,0c2.12,1.688,7.087,2.873,12.877,2.873c5.788,0,10.755-1.185,12.875-2.873
			c0,0,0.001,0,0.001,0c1.774-1.026,2.465-4.212,2.465-4.212L117.577,61.313z"/>
		<path fill="#CCCCCC" d="M120.946,60.725c-0.646-10.591-7.251-18.921-15.315-18.921c-8.059,0-14.661,8.32-15.313,18.902
			c-0.019,0.103-0.03,0.207-0.03,0.312c0,2.853,6.87,5.164,15.343,5.164c8.472,0,15.341-2.311,15.341-5.164
			C120.972,60.92,120.962,60.822,120.946,60.725z"/>
		<path fill="none" stroke="#686566" stroke-width="3" stroke-linecap="round" stroke-linejoin="round" stroke-miterlimit="10" d="
			M120.972,61.018c0-0.098-0.01-0.195-0.025-0.293c-0.646-10.591-7.251-18.921-15.315-18.921c-8.059,0-14.661,8.32-15.313,18.902
			c-0.019,0.103-0.03,0.207-0.03,0.312c0,0.118,0.016,0.234,0.039,0.351h-0.039c0,0,0.69,3.186,2.466,4.212c0,0,0,0,0,0
			c2.12,1.688,7.087,2.873,12.877,2.873c5.788,0,10.755-1.185,12.875-2.873c0,0,0.001,0,0.001,0
			c1.774-1.026,2.465-4.212,2.465-4.212h-0.039C120.956,61.252,120.972,61.136,120.972,61.018z"/>
		<circle fill="#F9F7F8" stroke="#686566" stroke-width="3" stroke-miterlimit="10" cx="105.632" cy="29.958" r="17.428"/>
		<path fill="#666062" d="M105.718,15.235c-4.499,0-8.145,3.647-8.145,8.145v8.999c0,4.498,3.646,8.144,8.145,8.144
			c4.498,0,8.144-3.646,8.144-8.144V23.38C113.861,18.882,110.216,15.235,105.718,15.235z"/>
		<circle fill="#353233" cx="105.717" cy="27.822" r="7.005"/>
		<circle fill="#666062" cx="105.717" cy="27.822" r="3.426"/>
		<circle fill="#353233" cx="105.717" cy="27.822" r="1.85"/>
		<path fill="#605858" d="M105.718,15.235c-4.499,0-8.145,3.647-8.145,8.145v8.999c0,4.498,3.646,8.144,8.145,8.144
			c4.498,0,8.144-3.646,8.144-8.144V23.38C113.861,18.882,110.216,15.235,105.718,15.235z M113.406,32.127
			c0,4.246-3.443,7.689-7.688,7.689c-4.247,0-7.689-3.443-7.689-7.689v-8.496c0-4.247,3.442-7.69,7.689-7.69
			c4.245,0,7.688,3.443,7.688,7.69V32.127z"/>
	</g>
</g>
</svg>
