<?xml version="1.0" encoding="utf-8"?>
<!-- Generator: Adobe Illustrator 16.0.0, SVG Export Plug-In . SVG Version: 6.00 Build 0)  -->
<!DOCTYPE svg PUBLIC "-//W3C//DTD SVG 1.1//EN" "http://www.w3.org/Graphics/SVG/1.1/DTD/svg11.dtd">
<svg version="1.1" id="Layer_1" xmlns="http://www.w3.org/2000/svg" xmlns:xlink="http://www.w3.org/1999/xlink" x="0px" y="0px"
	 width="40px" height="40px" viewBox="0 0 40 40" enable-background="new 0 0 40 40" xml:space="preserve">
<g id="Layer_1_1_">
</g>
<g>
	<g id="Layer_1_2_">
	</g>
	<g id="Layer_3" display="none">
	</g>
	<g>
		<g>
			<path fill="#96266A" d="M32.16,6.229H19.307c-1.165,0-1.957,0.953-1.76,2.118l0.478,2.825H3.054c-1.166,0-1.958,0.954-1.76,2.119
				l3.108,18.36c0.197,1.167,1.312,2.12,2.477,2.12h29.944c1.164,0,1.956-0.953,1.76-2.12l-1.649-9.745l-1.458-8.615l-0.836-4.944
				C34.44,7.183,33.325,6.229,32.16,6.229z"/>
			<path fill="#520036" d="M36.822,34.263H6.878c-1.397,0-2.725-1.134-2.961-2.529l-3.108-18.36
				c-0.12-0.714,0.053-1.392,0.487-1.907c0.428-0.506,1.053-0.786,1.758-0.786h14.39L17.063,8.43
				c-0.12-0.714,0.052-1.391,0.487-1.906c0.428-0.507,1.053-0.786,1.757-0.786H32.16c1.397,0,2.726,1.134,2.962,2.528l3.944,23.303
				c0.12,0.716-0.054,1.393-0.488,1.907C38.15,33.982,37.526,34.263,36.822,34.263z M3.054,11.664c-0.412,0-0.769,0.156-1.007,0.438
				c-0.246,0.291-0.341,0.684-0.269,1.108l3.107,18.36c0.157,0.928,1.069,1.711,1.993,1.711h29.944c0.41,0,0.767-0.155,1.006-0.438
				c0.246-0.289,0.341-0.684,0.269-1.108L34.153,8.43c-0.157-0.926-1.069-1.709-1.993-1.709H19.307
				c-0.411,0-0.769,0.155-1.006,0.438c-0.245,0.29-0.341,0.684-0.269,1.108l0.478,2.825c0.023,0.142-0.016,0.288-0.109,0.399
				c-0.094,0.11-0.23,0.174-0.375,0.174H3.054z"/>
		</g>
		<g>
			<path fill="#E5BCD6" d="M36.609,6.229H23.756c-1.164,0-2.117,0.954-2.117,2.118v2.825H6.667c-1.165,0-2.119,0.954-2.119,2.119
				v18.36c0,1.167,0.954,2.12,2.119,2.12h29.943c1.166,0,2.119-0.953,2.119-2.12v-9.745v-8.615V8.347
				C38.729,7.183,37.775,6.229,36.609,6.229z"/>
			<path fill="#520036" d="M36.609,34.263H6.667c-1.439,0-2.609-1.171-2.609-2.611v-18.36c0-1.439,1.17-2.61,2.609-2.61h14.48V8.347
				c0-1.438,1.172-2.609,2.609-2.609h12.854c1.438,0,2.61,1.17,2.61,2.609v23.304C39.22,33.092,38.048,34.263,36.609,34.263z
				 M6.667,11.664c-0.897,0-1.628,0.73-1.628,1.628v18.36c0,0.898,0.73,1.629,1.628,1.629h29.943c0.897,0,1.627-0.73,1.627-1.629
				V8.347c0-0.897-0.729-1.627-1.627-1.627H23.756c-0.896,0-1.626,0.73-1.626,1.627v2.825c0,0.271-0.222,0.491-0.491,0.491H6.667z"
				/>
		</g>
	</g>
	<g>
		<path fill="#96266A" d="M31.071,19.658l-3.462-0.465l-2.734-2.443c-0.137-0.121-0.656-0.641-1.92-0.641s-1.736,0.438-1.899,0.584
			l-2.346,2.1l-2.155-2.025c-0.396-0.372-1.019-0.353-1.392,0.043c-0.372,0.396-0.353,1.019,0.043,1.392l0.432,0.406l2.38,2.239
			c0.189,0.177,0.433,0.267,0.675,0.267c0.235,0,0.47-0.084,0.657-0.251l0.813-0.728v3.442l-4.058,4.053
			c-0.484-0.447-1.239-0.436-1.709,0.034l1.58,1.579l0.742,0.743l5.589-5.583h1.34v7.409h0.819h1.281h1.191
			c0-0.668-0.529-1.21-1.191-1.234v-6.175h0.001v-4.233l0.775,0.693c0.146,0.131,0.329,0.215,0.524,0.241l3.761,0.506
			c0.045,0.006,0.088,0.009,0.133,0.009c0.485,0,0.908-0.359,0.975-0.854C31.987,20.227,31.61,19.73,31.071,19.658z"/>
		<circle fill="#96266A" cx="22.955" cy="14.202" r="1.736"/>
	</g>
	<path fill="#00825F" d="M36.609,6.229c1.166,0,2.119,0.954,2.119,2.118v4.944v8.615v9.745c0,0.309-0.069,0.603-0.188,0.867
		c-0.209,0.735-0.862,1.253-1.718,1.253H6.878H6.667c-0.857,0-1.598-0.518-1.931-1.253c-0.164-0.265-0.282-0.559-0.334-0.867
		l-3.108-18.36c-0.198-1.166,0.595-2.119,1.76-2.119h3.612h11.358l-0.478-2.825c-0.197-1.165,0.596-2.118,1.76-2.118h4.443
		c0.002,0,0.005,0,0.006,0H36.609 M36.609,5.247H23.756c-0.008,0-0.014,0-0.021,0h-4.427c-0.839,0-1.616,0.35-2.132,0.959
		c-0.522,0.618-0.74,1.458-0.596,2.305l0.284,1.678H6.667H3.054c-0.84,0-1.617,0.351-2.133,0.96
		c-0.522,0.619-0.739,1.459-0.596,2.305l3.107,18.36c0.069,0.405,0.214,0.797,0.435,1.167c0.516,1.078,1.606,1.771,2.798,1.771
		h0.212h29.944c1.232,0,2.286-0.759,2.642-1.896c0.163-0.386,0.246-0.792,0.246-1.207v-9.745v-8.615V8.347
		C39.71,6.638,38.319,5.247,36.609,5.247L36.609,5.247z"/>
</g>
</svg>
