<?xml version="1.0" encoding="utf-8"?>
<!-- Generator: Adobe Illustrator 16.0.0, SVG Export Plug-In . SVG Version: 6.00 Build 0)  -->
<!DOCTYPE svg PUBLIC "-//W3C//DTD SVG 1.1//EN" "http://www.w3.org/Graphics/SVG/1.1/DTD/svg11.dtd">
<svg version="1.1" id="Layer_1" xmlns="http://www.w3.org/2000/svg" xmlns:xlink="http://www.w3.org/1999/xlink" x="0px" y="0px"
	 width="40px" height="40px" viewBox="0 0 40 40" enable-background="new 0 0 40 40" xml:space="preserve">
<g>
	<g>
		<path fill="#00845A" d="M33.811,27.616c-0.288,0-0.521-0.234-0.521-0.521v-4.637H6.665v4.343c0,0.287-0.234,0.521-0.522,0.521
			s-0.521-0.234-0.521-0.521v-4.864c0-0.288,0.233-0.522,0.521-0.522h27.668c0.288,0,0.521,0.234,0.521,0.522v5.158
			C34.332,27.382,34.099,27.616,33.811,27.616z"/>
		<path fill="#00845A" d="M19.977,27.322c-0.288,0-0.521-0.234-0.521-0.521V17.49c0-0.289,0.233-0.522,0.521-0.522
			s0.522,0.233,0.522,0.522v9.311C20.499,27.088,20.265,27.322,19.977,27.322z"/>
	</g>
	<g>
		<g>
			<path fill="#E6E6E6" d="M25.513,13.958c0-0.124-0.03-3.021-2.912-3.021c-0.864,0-1.316,0.317-1.716,0.6
				c-0.305,0.217-0.589,0.417-0.973,0.417c-0.399,0-0.685-0.2-0.988-0.417c-0.398-0.283-0.849-0.6-1.719-0.6
				c-2.88,0-2.915,2.896-2.915,3.021c0,0.693-0.442,0.793-0.71,0.793h-2.005c0,1.271,0,2.34,0,2.416c0,0.348,0.278,0.674,0.67,0.674
				c0.082,0,0.757,0,1.769,0h13.587c0.412,0,0.777-0.326,0.777-0.823c0-0.101,0-1.076,0-2.267h-2.151
				C25.961,14.751,25.513,14.651,25.513,13.958z"/>
			<path fill="#A0A8BA" d="M27.601,18.051H12.245c-0.481,0-0.876-0.393-0.876-0.884v-2.626h2.211c0.345,0,0.511-0.183,0.511-0.583
				c0-0.133,0.035-3.234,3.114-3.234c0.937,0,1.436,0.357,1.836,0.64c0.287,0.207,0.53,0.384,0.871,0.384
				c0.323,0,0.566-0.177,0.854-0.384c0.404-0.283,0.905-0.64,1.835-0.64c3.081,0,3.119,3.101,3.119,3.234
				c0,0.4,0.16,0.583,0.507,0.583h2.354v2.477C28.581,17.598,28.151,18.051,27.601,18.051z M11.783,14.961v2.206
				c0,0.224,0.177,0.465,0.462,0.465h15.356c0.278,0,0.573-0.214,0.573-0.614v-2.057h-1.947c-0.576,0-0.917-0.373-0.917-1.003
				c0-0.113-0.03-2.81-2.709-2.81c-0.801,0-1.209,0.287-1.604,0.563c-0.311,0.223-0.633,0.453-1.085,0.453
				c-0.468,0-0.805-0.24-1.104-0.453c-0.393-0.277-0.794-0.563-1.604-0.563c-2.674,0-2.709,2.697-2.709,2.81
				c0,0.63-0.34,1.003-0.916,1.003H11.783z"/>
		</g>
		<g>
			<path fill="#FFFFFF" d="M11.575,7.588c0,0.73,0,2.744,0,5.546c0,0.384,0,1.21,0,1.617h2.005c0.268,0,0.71-0.1,0.71-0.793
				c0-0.124,0.035-3.021,2.915-3.021c0.87,0,1.32,0.317,1.719,0.6c0.304,0.217,0.589,0.417,0.988,0.417
				c0.384,0,0.668-0.2,0.973-0.417c0.399-0.283,0.852-0.6,1.716-0.6c2.882,0,2.912,2.896,2.912,3.021
				c0,0.693,0.448,0.793,0.714,0.793h2.151c0-0.403,0-1.233,0-1.617c0-2.78,0-4.37,0-5.546H11.622H11.575z"/>
			<path fill="#A0A8BA" d="M28.581,14.961h-2.354c-0.576,0-0.917-0.373-0.917-1.003c0-0.113-0.03-2.81-2.709-2.81
				c-0.801,0-1.209,0.287-1.604,0.563c-0.311,0.223-0.633,0.453-1.085,0.453c-0.468,0-0.805-0.24-1.104-0.453
				c-0.393-0.277-0.794-0.563-1.604-0.563c-2.674,0-2.709,2.697-2.709,2.81c0,0.63-0.34,1.003-0.916,1.003h-2.211v-7.58h17.212
				V14.961z M22.601,10.724c3.081,0,3.119,3.101,3.119,3.234c0,0.4,0.16,0.583,0.507,0.583h1.947v-6.74H11.783v6.74h1.797
				c0.345,0,0.511-0.183,0.511-0.583c0-0.133,0.035-3.234,3.114-3.234c0.937,0,1.436,0.357,1.836,0.64
				c0.287,0.207,0.53,0.384,0.871,0.384c0.323,0,0.566-0.177,0.854-0.384C21.17,11.082,21.671,10.724,22.601,10.724z"/>
		</g>
		<g>
			<path fill="#E6E6E6" d="M26.541,5.805H13.752c-1.044,0-1.929,0.769-2.13,1.783h16.756C28.378,6.418,27.59,5.805,26.541,5.805z"/>
			<path fill="#A0A8BA" d="M28.581,7.801H11.369l0.052-0.254c0.226-1.129,1.208-1.953,2.332-1.953h12.789
				c1.242,0,2.04,0.783,2.04,1.993V7.801z M11.89,7.381h16.272c-0.081-0.859-0.674-1.366-1.621-1.366H13.752
				C12.907,6.015,12.162,6.574,11.89,7.381z"/>
		</g>
		<g>
			<path fill="#414757" d="M17.562,15.151c-0.708,0-1.282-0.584-1.282-1.305c0-0.726,0.574-1.315,1.282-1.315
				c0.708,0,1.276,0.59,1.276,1.315C18.837,14.567,18.27,15.151,17.562,15.151z"/>
			<path fill="#A0A8BA" d="M17.562,12.531c0.708,0,1.276,0.59,1.276,1.315c0,0.721-0.568,1.305-1.276,1.305
				c-0.708,0-1.282-0.584-1.282-1.305C16.28,13.121,16.854,12.531,17.562,12.531 M17.562,12.241c-0.864,0-1.568,0.717-1.568,1.605
				c0,0.882,0.704,1.601,1.568,1.601c0.866,0,1.565-0.719,1.565-1.601C19.127,12.958,18.428,12.241,17.562,12.241L17.562,12.241z"/>
		</g>
		<g>
			<path fill="#414757" d="M22.259,15.151c-0.707,0-1.281-0.584-1.281-1.305c0-0.726,0.574-1.315,1.281-1.315
				c0.703,0,1.276,0.59,1.276,1.315C23.535,14.567,22.962,15.151,22.259,15.151z"/>
			<path fill="#A0A8BA" d="M22.259,12.531c0.703,0,1.276,0.59,1.276,1.315c0,0.721-0.573,1.305-1.276,1.305
				c-0.707,0-1.281-0.584-1.281-1.305C20.978,13.121,21.552,12.531,22.259,12.531 M22.259,12.241c-0.867,0-1.565,0.717-1.565,1.605
				c0,0.882,0.698,1.601,1.565,1.601c0.859,0,1.565-0.719,1.565-1.601C23.824,12.958,23.118,12.241,22.259,12.241L22.259,12.241z"/>
		</g>
	</g>
	<g>
		<g>
			<g>
				<path fill="#E6E6E6" d="M10.136,31.545c0-0.087-0.021-2.111-2.035-2.111c-0.604,0-0.921,0.222-1.199,0.421
					c-0.213,0.149-0.412,0.29-0.68,0.29c-0.279,0-0.479-0.141-0.691-0.29c-0.278-0.199-0.594-0.421-1.202-0.421
					c-2.014,0-2.038,2.024-2.038,2.111c0,0.485-0.309,0.555-0.496,0.555H0.393c0,0.888,0,1.636,0,1.688
					c0,0.243,0.193,0.471,0.468,0.471c0.057,0,0.528,0,1.236,0h9.499c0.289,0,0.542-0.228,0.542-0.575c0-0.069,0-0.753,0-1.584
					h-1.504C10.45,32.1,10.136,32.03,10.136,31.545z"/>
				<path fill="#A0A8BA" d="M11.596,34.405H0.861c-0.337,0-0.611-0.274-0.611-0.617v-1.835h1.545c0.241,0,0.356-0.129,0.356-0.408
					c0-0.094,0.025-2.26,2.177-2.26c0.654,0,1.003,0.249,1.283,0.446C5.813,29.877,5.983,30,6.221,30
					c0.225,0,0.396-0.123,0.596-0.269c0.283-0.197,0.633-0.446,1.283-0.446c2.153,0,2.18,2.166,2.18,2.26
					c0,0.279,0.112,0.408,0.354,0.408h1.647v1.73C12.282,34.09,11.98,34.405,11.596,34.405z M0.538,32.246v1.542
					c0,0.157,0.124,0.325,0.323,0.325h10.735c0.193,0,0.399-0.15,0.399-0.43v-1.438h-1.361c-0.402,0-0.64-0.261-0.64-0.701
					c0-0.079-0.022-1.964-1.894-1.964c-0.561,0-0.846,0.199-1.121,0.394c-0.218,0.155-0.442,0.317-0.758,0.317
					c-0.328,0-0.563-0.169-0.772-0.317c-0.274-0.194-0.555-0.394-1.121-0.394c-1.87,0-1.893,1.885-1.893,1.964
					c0,0.44-0.237,0.701-0.64,0.701H0.538z"/>
			</g>
			<g>
				<path fill="#FFFFFF" d="M0.393,27.093c0,0.51,0,1.917,0,3.877c0,0.268,0,0.846,0,1.13h1.402c0.187,0,0.496-0.069,0.496-0.555
					c0-0.087,0.023-2.111,2.038-2.111c0.608,0,0.923,0.222,1.202,0.421c0.212,0.149,0.412,0.29,0.691,0.29
					c0.268,0,0.467-0.141,0.68-0.29c0.278-0.199,0.595-0.421,1.199-0.421c2.014,0,2.035,2.024,2.035,2.111
					c0,0.485,0.314,0.555,0.499,0.555h1.504c0-0.282,0-0.862,0-1.13c0-1.943,0-3.055,0-3.877H0.426H0.393z"/>
				<path fill="#A0A8BA" d="M12.282,32.246h-1.647c-0.402,0-0.64-0.261-0.64-0.701c0-0.079-0.022-1.964-1.894-1.964
					c-0.561,0-0.846,0.199-1.121,0.394c-0.218,0.155-0.442,0.317-0.758,0.317c-0.328,0-0.563-0.169-0.772-0.317
					c-0.274-0.194-0.555-0.394-1.121-0.394c-1.87,0-1.893,1.885-1.893,1.964c0,0.44-0.237,0.701-0.64,0.701H0.25v-5.298h12.032
					V32.246z M8.101,29.285c2.153,0,2.18,2.166,2.18,2.26c0,0.279,0.112,0.408,0.354,0.408h1.361v-4.712H0.538v4.712h1.257
					c0.241,0,0.356-0.129,0.356-0.408c0-0.094,0.025-2.26,2.177-2.26c0.654,0,1.003,0.249,1.283,0.446
					C5.813,29.877,5.983,30,6.221,30c0.225,0,0.396-0.123,0.596-0.269C7.101,29.534,7.45,29.285,8.101,29.285z"/>
			</g>
			<g>
				<path fill="#E6E6E6" d="M10.855,25.847H1.916c-0.731,0-1.349,0.537-1.49,1.246h11.713
					C12.139,26.274,11.587,25.847,10.855,25.847z"/>
				<path fill="#A0A8BA" d="M12.282,27.241H0.25l0.035-0.178c0.159-0.789,0.844-1.364,1.63-1.364h8.939
					c0.867,0,1.427,0.547,1.427,1.394V27.241z M0.613,26.948h11.375c-0.057-0.602-0.472-0.955-1.133-0.955H1.916
					C1.324,25.993,0.803,26.384,0.613,26.948z"/>
			</g>
			<g>
				<path fill="#414757" d="M4.578,32.38c-0.494,0-0.896-0.409-0.896-0.911c0-0.509,0.402-0.921,0.896-0.921
					c0.495,0,0.891,0.412,0.891,0.921C5.469,31.971,5.073,32.38,4.578,32.38z"/>
				<path fill="#A0A8BA" d="M4.578,30.548c0.495,0,0.891,0.412,0.891,0.921c0,0.502-0.396,0.911-0.891,0.911
					c-0.494,0-0.896-0.409-0.896-0.911C3.682,30.96,4.084,30.548,4.578,30.548 M4.578,30.346c-0.604,0-1.096,0.5-1.096,1.123
					c0,0.614,0.492,1.118,1.096,1.118c0.605,0,1.094-0.504,1.094-1.118C5.672,30.846,5.183,30.346,4.578,30.346L4.578,30.346z"/>
			</g>
			<g>
				<path fill="#414757" d="M7.862,32.38c-0.495,0-0.896-0.409-0.896-0.911c0-0.509,0.401-0.921,0.896-0.921
					c0.492,0,0.892,0.412,0.892,0.921C8.753,31.971,8.354,32.38,7.862,32.38z"/>
				<path fill="#A0A8BA" d="M7.862,30.548c0.492,0,0.892,0.412,0.892,0.921c0,0.502-0.4,0.911-0.892,0.911
					c-0.495,0-0.896-0.409-0.896-0.911C6.966,30.96,7.367,30.548,7.862,30.548 M7.862,30.346c-0.608,0-1.095,0.5-1.095,1.123
					c0,0.614,0.487,1.118,1.095,1.118c0.601,0,1.093-0.504,1.093-1.118C8.955,30.846,8.462,30.346,7.862,30.346L7.862,30.346z"/>
			</g>
		</g>
		<g>
			<g>
				<path fill="#E6E6E6" d="M23.87,31.545c0-0.087-0.022-2.111-2.035-2.111c-0.605,0-0.92,0.222-1.199,0.421
					c-0.213,0.149-0.412,0.29-0.68,0.29c-0.279,0-0.479-0.141-0.691-0.29c-0.278-0.199-0.593-0.421-1.202-0.421
					c-2.014,0-2.037,2.024-2.037,2.111c0,0.485-0.31,0.555-0.497,0.555h-1.402c0,0.888,0,1.636,0,1.688
					c0,0.243,0.193,0.471,0.468,0.471c0.057,0,0.53,0,1.237,0h9.498c0.288,0,0.543-0.228,0.543-0.575c0-0.069,0-0.753,0-1.584
					h-1.504C24.184,32.1,23.87,32.03,23.87,31.545z"/>
				<path fill="#A0A8BA" d="M25.33,34.405H14.595c-0.336,0-0.612-0.274-0.612-0.617v-1.835h1.546c0.241,0,0.356-0.129,0.356-0.408
					c0-0.094,0.025-2.26,2.177-2.26c0.654,0,1.002,0.249,1.283,0.446C19.547,29.877,19.717,30,19.956,30
					c0.225,0,0.396-0.123,0.596-0.269c0.283-0.197,0.632-0.446,1.283-0.446c2.153,0,2.18,2.166,2.18,2.26
					c0,0.279,0.111,0.408,0.354,0.408h1.647v1.73C26.017,34.09,25.714,34.405,25.33,34.405z M14.272,32.246v1.542
					c0,0.157,0.125,0.325,0.323,0.325H25.33c0.193,0,0.399-0.15,0.399-0.43v-1.438h-1.36c-0.402,0-0.641-0.261-0.641-0.701
					c0-0.079-0.021-1.964-1.894-1.964c-0.561,0-0.846,0.199-1.121,0.394c-0.217,0.155-0.443,0.317-0.758,0.317
					c-0.328,0-0.563-0.169-0.772-0.317c-0.274-0.194-0.555-0.394-1.121-0.394c-1.87,0-1.894,1.885-1.894,1.964
					c0,0.44-0.238,0.701-0.64,0.701H14.272z"/>
			</g>
			<g>
				<path fill="#FFFFFF" d="M14.127,27.093c0,0.51,0,1.917,0,3.877c0,0.268,0,0.846,0,1.13h1.402c0.187,0,0.497-0.069,0.497-0.555
					c0-0.087,0.023-2.111,2.037-2.111c0.608,0,0.923,0.222,1.202,0.421c0.212,0.149,0.412,0.29,0.691,0.29
					c0.268,0,0.467-0.141,0.68-0.29c0.279-0.199,0.594-0.421,1.199-0.421c2.013,0,2.035,2.024,2.035,2.111
					c0,0.485,0.313,0.555,0.499,0.555h1.504c0-0.282,0-0.862,0-1.13c0-1.943,0-3.055,0-3.877H14.16H14.127z"/>
				<path fill="#A0A8BA" d="M26.017,32.246h-1.647c-0.402,0-0.641-0.261-0.641-0.701c0-0.079-0.021-1.964-1.894-1.964
					c-0.561,0-0.846,0.199-1.121,0.394c-0.217,0.155-0.443,0.317-0.758,0.317c-0.328,0-0.563-0.169-0.772-0.317
					c-0.274-0.194-0.555-0.394-1.121-0.394c-1.87,0-1.894,1.885-1.894,1.964c0,0.44-0.238,0.701-0.64,0.701h-1.546v-5.298h12.033
					V32.246z M21.835,29.285c2.153,0,2.18,2.166,2.18,2.26c0,0.279,0.111,0.408,0.354,0.408h1.36v-4.712H14.272v4.712h1.258
					c0.241,0,0.356-0.129,0.356-0.408c0-0.094,0.025-2.26,2.177-2.26c0.654,0,1.002,0.249,1.283,0.446
					C19.547,29.877,19.717,30,19.956,30c0.225,0,0.396-0.123,0.596-0.269C20.835,29.534,21.184,29.285,21.835,29.285z"/>
			</g>
			<g>
				<path fill="#E6E6E6" d="M24.588,25.847h-8.939c-0.73,0-1.349,0.537-1.489,1.246h11.713
					C25.873,26.274,25.32,25.847,24.588,25.847z"/>
				<path fill="#A0A8BA" d="M26.017,27.241H13.983l0.036-0.178c0.159-0.789,0.845-1.364,1.63-1.364h8.939
					c0.869,0,1.429,0.547,1.429,1.394V27.241z M14.348,26.948h11.375c-0.058-0.602-0.473-0.955-1.135-0.955h-8.939
					C15.059,25.993,14.538,26.384,14.348,26.948z"/>
			</g>
			<g>
				<path fill="#414757" d="M18.312,32.38c-0.494,0-0.896-0.409-0.896-0.911c0-0.509,0.401-0.921,0.896-0.921
					c0.496,0,0.892,0.412,0.892,0.921C19.203,31.971,18.807,32.38,18.312,32.38z"/>
				<path fill="#A0A8BA" d="M18.312,30.548c0.496,0,0.892,0.412,0.892,0.921c0,0.502-0.396,0.911-0.892,0.911
					c-0.494,0-0.896-0.409-0.896-0.911C17.416,30.96,17.817,30.548,18.312,30.548 M18.312,30.346c-0.604,0-1.096,0.5-1.096,1.123
					c0,0.614,0.492,1.118,1.096,1.118c0.605,0,1.095-0.504,1.095-1.118C19.406,30.846,18.917,30.346,18.312,30.346L18.312,30.346z"
					/>
			</g>
			<g>
				<path fill="#414757" d="M21.596,32.38c-0.495,0-0.896-0.409-0.896-0.911c0-0.509,0.4-0.921,0.896-0.921
					c0.492,0,0.892,0.412,0.892,0.921C22.487,31.971,22.088,32.38,21.596,32.38z"/>
				<path fill="#A0A8BA" d="M21.596,30.548c0.492,0,0.892,0.412,0.892,0.921c0,0.502-0.399,0.911-0.892,0.911
					c-0.495,0-0.896-0.409-0.896-0.911C20.7,30.96,21.101,30.548,21.596,30.548 M21.596,30.346c-0.606,0-1.095,0.5-1.095,1.123
					c0,0.614,0.488,1.118,1.095,1.118c0.601,0,1.094-0.504,1.094-1.118C22.689,30.846,22.196,30.346,21.596,30.346L21.596,30.346z"
					/>
			</g>
		</g>
		<g>
			<g>
				<path fill="#E6E6E6" d="M37.604,31.545c0-0.087-0.022-2.111-2.035-2.111c-0.605,0-0.922,0.222-1.2,0.421
					c-0.213,0.149-0.411,0.29-0.68,0.29c-0.279,0-0.479-0.141-0.69-0.29c-0.278-0.199-0.593-0.421-1.202-0.421
					c-2.013,0-2.036,2.024-2.036,2.111c0,0.485-0.309,0.555-0.497,0.555h-1.402c0,0.888,0,1.636,0,1.688
					c0,0.243,0.194,0.471,0.468,0.471c0.059,0,0.528,0,1.237,0h9.498c0.289,0,0.543-0.228,0.543-0.575c0-0.069,0-0.753,0-1.584
					h-1.504C37.919,32.1,37.604,32.03,37.604,31.545z"/>
				<path fill="#A0A8BA" d="M39.064,34.405H28.329c-0.335,0-0.612-0.274-0.612-0.617v-1.835h1.547c0.24,0,0.356-0.129,0.356-0.408
					c0-0.094,0.025-2.26,2.177-2.26c0.655,0,1.003,0.249,1.284,0.446C33.28,29.877,33.451,30,33.689,30
					c0.226,0,0.396-0.123,0.597-0.269c0.283-0.197,0.633-0.446,1.283-0.446c2.153,0,2.18,2.166,2.18,2.26
					c0,0.279,0.111,0.408,0.354,0.408h1.646v1.73C39.75,34.09,39.45,34.405,39.064,34.405z M28.008,32.246v1.542
					c0,0.157,0.123,0.325,0.321,0.325h10.735c0.194,0,0.399-0.15,0.399-0.43v-1.438h-1.36c-0.402,0-0.641-0.261-0.641-0.701
					c0-0.079-0.022-1.964-1.894-1.964c-0.561,0-0.846,0.199-1.12,0.394c-0.218,0.155-0.442,0.317-0.76,0.317
					c-0.327,0-0.562-0.169-0.771-0.317c-0.275-0.194-0.556-0.394-1.122-0.394c-1.869,0-1.894,1.885-1.894,1.964
					c0,0.44-0.236,0.701-0.64,0.701H28.008z"/>
			</g>
			<g>
				<path fill="#FFFFFF" d="M27.861,27.093c0,0.51,0,1.917,0,3.877c0,0.268,0,0.846,0,1.13h1.402c0.188,0,0.497-0.069,0.497-0.555
					c0-0.087,0.023-2.111,2.036-2.111c0.609,0,0.924,0.222,1.202,0.421c0.212,0.149,0.411,0.29,0.69,0.29
					c0.269,0,0.467-0.141,0.68-0.29c0.278-0.199,0.595-0.421,1.2-0.421c2.013,0,2.035,2.024,2.035,2.111
					c0,0.485,0.314,0.555,0.499,0.555h1.504c0-0.282,0-0.862,0-1.13c0-1.943,0-3.055,0-3.877H27.894H27.861z"/>
				<path fill="#A0A8BA" d="M39.75,32.246h-1.646c-0.402,0-0.641-0.261-0.641-0.701c0-0.079-0.022-1.964-1.894-1.964
					c-0.561,0-0.846,0.199-1.12,0.394c-0.218,0.155-0.442,0.317-0.76,0.317c-0.327,0-0.562-0.169-0.771-0.317
					c-0.275-0.194-0.556-0.394-1.122-0.394c-1.869,0-1.894,1.885-1.894,1.964c0,0.44-0.236,0.701-0.64,0.701h-1.547v-5.298H39.75
					V32.246z M35.569,29.285c2.153,0,2.18,2.166,2.18,2.26c0,0.279,0.111,0.408,0.354,0.408h1.36v-4.712H28.008v4.712h1.256
					c0.24,0,0.356-0.129,0.356-0.408c0-0.094,0.025-2.26,2.177-2.26c0.655,0,1.003,0.249,1.284,0.446
					C33.28,29.877,33.451,30,33.689,30c0.226,0,0.396-0.123,0.597-0.269C34.569,29.534,34.919,29.285,35.569,29.285z"/>
			</g>
			<g>
				<path fill="#E6E6E6" d="M38.323,25.847h-8.939c-0.731,0-1.349,0.537-1.49,1.246h11.714
					C39.607,26.274,39.055,25.847,38.323,25.847z"/>
				<path fill="#A0A8BA" d="M39.75,27.241H27.717l0.036-0.178c0.16-0.789,0.846-1.364,1.631-1.364h8.939
					c0.868,0,1.427,0.547,1.427,1.394V27.241z M28.081,26.948h11.376c-0.056-0.602-0.473-0.955-1.134-0.955h-8.939
					C28.793,25.993,28.272,26.384,28.081,26.948z"/>
			</g>
			<g>
				<path fill="#414757" d="M32.046,32.38c-0.494,0-0.896-0.409-0.896-0.911c0-0.509,0.401-0.921,0.896-0.921
					s0.893,0.412,0.893,0.921C32.938,31.971,32.54,32.38,32.046,32.38z"/>
				<path fill="#A0A8BA" d="M32.046,30.548c0.494,0,0.893,0.412,0.893,0.921c0,0.502-0.398,0.911-0.893,0.911
					s-0.896-0.409-0.896-0.911C31.15,30.96,31.552,30.548,32.046,30.548 M32.046,30.346c-0.604,0-1.096,0.5-1.096,1.123
					c0,0.614,0.491,1.118,1.096,1.118c0.605,0,1.095-0.504,1.095-1.118C33.141,30.846,32.651,30.346,32.046,30.346L32.046,30.346z"
					/>
			</g>
			<g>
				<path fill="#414757" d="M35.33,32.38c-0.494,0-0.896-0.409-0.896-0.911c0-0.509,0.401-0.921,0.896-0.921
					c0.492,0,0.894,0.412,0.894,0.921C36.224,31.971,35.822,32.38,35.33,32.38z"/>
				<path fill="#A0A8BA" d="M35.33,30.548c0.492,0,0.894,0.412,0.894,0.921c0,0.502-0.401,0.911-0.894,0.911
					c-0.494,0-0.896-0.409-0.896-0.911C34.435,30.96,34.836,30.548,35.33,30.548 M35.33,30.346c-0.606,0-1.095,0.5-1.095,1.123
					c0,0.614,0.488,1.118,1.095,1.118c0.601,0,1.096-0.504,1.096-1.118C36.426,30.846,35.931,30.346,35.33,30.346L35.33,30.346z"/>
			</g>
		</g>
	</g>
</g>
</svg>
