<?xml version="1.0" encoding="utf-8"?>
<!-- Generator: Adobe Illustrator 16.0.0, SVG Export Plug-In . SVG Version: 6.00 Build 0)  -->
<!DOCTYPE svg PUBLIC "-//W3C//DTD SVG 1.1//EN" "http://www.w3.org/Graphics/SVG/1.1/DTD/svg11.dtd">
<svg version="1.1" id="Layer_1" xmlns="http://www.w3.org/2000/svg" xmlns:xlink="http://www.w3.org/1999/xlink" x="0px" y="0px"
	 width="40px" height="40px" viewBox="0 0 40 40" enable-background="new 0 0 40 40" xml:space="preserve">
<g id="Layer_1_1_">
</g>
<g id="Layer_1_2_">
</g>
<g id="Layer_3" display="none">
</g>
<g>
	<g>
		<path fill="#E6E6E6" d="M32.561,24.728c0-0.272-0.072-6.688-6.604-6.688c-1.964,0-2.989,0.701-3.894,1.328
			c-0.69,0.48-1.336,0.923-2.208,0.923c-0.905,0-1.553-0.442-2.24-0.923c-0.903-0.627-1.926-1.328-3.9-1.328
			c-6.532,0-6.61,6.415-6.61,6.688c0,1.535-1.003,1.756-1.61,1.756H0.945c0,2.813,0,5.181,0,5.353c0,0.767,0.63,1.49,1.519,1.49
			c0.184,0,1.716,0,4.012,0h30.821c0.935,0,1.762-0.724,1.762-1.823c0-0.222,0-2.384,0-5.02h-4.882
			C33.577,26.483,32.561,26.263,32.561,24.728z"/>
		<path fill="#A0A8BA" d="M37.297,33.791H2.464c-1.093,0-1.986-0.87-1.986-1.955v-5.817h5.016c0.782,0,1.157-0.406,1.157-1.291
			c0-0.296,0.081-7.16,7.063-7.16c2.124,0,3.256,0.79,4.165,1.418c0.652,0.457,1.204,0.849,1.976,0.849
			c0.733,0,1.287-0.392,1.936-0.849c0.919-0.628,2.053-1.418,4.165-1.418c6.985,0,7.073,6.864,7.073,7.16
			c0,0.885,0.363,1.291,1.147,1.291h5.345v5.484C39.521,32.787,38.545,33.791,37.297,33.791z M1.416,26.949v4.887
			c0,0.493,0.402,1.025,1.048,1.025h34.833c0.628,0,1.297-0.473,1.297-1.358v-4.554h-4.417c-1.306,0-2.077-0.828-2.077-2.222
			c0-0.251-0.071-6.223-6.144-6.223c-1.82,0-2.744,0.635-3.639,1.247c-0.705,0.495-1.437,1.004-2.462,1.004
			c-1.06,0-1.826-0.531-2.503-1.004c-0.892-0.612-1.801-1.247-3.637-1.247c-6.067,0-6.143,5.972-6.143,6.223
			c0,1.394-0.771,2.222-2.078,2.222H1.416z"/>
	</g>
	<g>
		<path fill="#FFFFFF" d="M0.945,10.622c0,1.617,0,6.075,0,12.282c0,0.85,0,2.679,0,3.579h4.549c0.607,0,1.61-0.221,1.61-1.756
			c0-0.272,0.078-6.688,6.61-6.688c1.975,0,2.997,0.701,3.9,1.328c0.687,0.48,1.335,0.923,2.24,0.923
			c0.872,0,1.517-0.442,2.208-0.923c0.904-0.627,1.93-1.328,3.894-1.328c6.532,0,6.604,6.415,6.604,6.688
			c0,1.535,1.017,1.756,1.616,1.756h4.882c0-0.893,0-2.729,0-3.579c0-6.156,0-9.677,0-12.282H1.05H0.945z"/>
		<path fill="#A0A8BA" d="M39.521,26.949h-5.345c-1.306,0-2.077-0.828-2.077-2.222c0-0.251-0.071-6.223-6.144-6.223
			c-1.82,0-2.744,0.635-3.639,1.247c-0.705,0.495-1.437,1.004-2.462,1.004c-1.06,0-1.826-0.531-2.503-1.004
			c-0.892-0.612-1.801-1.247-3.637-1.247c-6.067,0-6.143,5.972-6.143,6.223c0,1.394-0.771,2.222-2.078,2.222H0.479V10.164h39.043
			V26.949z M25.956,17.567c6.985,0,7.073,6.864,7.073,7.16c0,0.885,0.363,1.291,1.147,1.291h4.417V11.095H1.416v14.924h4.078
			c0.782,0,1.157-0.406,1.157-1.291c0-0.296,0.081-7.16,7.063-7.16c2.124,0,3.256,0.79,4.165,1.418
			c0.652,0.457,1.204,0.849,1.976,0.849c0.733,0,1.287-0.392,1.936-0.849C22.71,18.357,23.844,17.567,25.956,17.567z"/>
	</g>
	<g>
		<path fill="#E6E6E6" d="M34.893,6.673H5.883c-2.369,0-4.375,1.705-4.833,3.949h38.008C39.059,8.032,37.267,6.673,34.893,6.673z"/>
		<path fill="#A0A8BA" d="M39.521,11.095H0.479l0.116-0.562c0.513-2.501,2.74-4.324,5.289-4.324h29.009
			c2.813,0,4.629,1.734,4.629,4.413V11.095z M1.66,10.164H38.57c-0.185-1.903-1.532-3.026-3.678-3.026H5.883
			C3.968,7.138,2.276,8.378,1.66,10.164z"/>
	</g>
	<g>
		<path fill="#414757" d="M14.522,27.37c-1.603,0-2.906-1.293-2.906-2.886c0-1.61,1.303-2.916,2.906-2.916
			c1.606,0,2.896,1.306,2.896,2.916C17.418,26.077,16.129,27.37,14.522,27.37z"/>
		<path fill="#A0A8BA" d="M14.522,21.568c1.606,0,2.896,1.306,2.896,2.916c0,1.593-1.289,2.886-2.896,2.886
			c-1.603,0-2.906-1.293-2.906-2.886C11.616,22.874,12.919,21.568,14.522,21.568 M14.522,20.927c-1.959,0-3.555,1.586-3.555,3.558
			c0,1.948,1.596,3.542,3.555,3.542c1.965,0,3.552-1.594,3.552-3.542C18.074,22.513,16.488,20.927,14.522,20.927L14.522,20.927z"/>
	</g>
	<g>
		<path fill="#414757" d="M25.179,27.37c-1.604,0-2.907-1.293-2.907-2.886c0-1.61,1.304-2.916,2.907-2.916
			c1.597,0,2.896,1.306,2.896,2.916C28.074,26.077,26.775,27.37,25.179,27.37z"/>
		<path fill="#A0A8BA" d="M25.179,21.568c1.597,0,2.896,1.306,2.896,2.916c0,1.593-1.299,2.886-2.896,2.886
			c-1.604,0-2.907-1.293-2.907-2.886C22.271,22.874,23.575,21.568,25.179,21.568 M25.179,20.927c-1.969,0-3.553,1.586-3.553,3.558
			c0,1.948,1.584,3.542,3.553,3.542c1.95,0,3.552-1.594,3.552-3.542C28.73,22.513,27.129,20.927,25.179,20.927L25.179,20.927z"/>
	</g>
</g>
</svg>
