<?xml version="1.0" encoding="utf-8"?>
<!-- Generator: Adobe Illustrator 24.3.0, SVG Export Plug-In . SVG Version: 6.00 Build 0)  -->
<svg version="1.1" id="Layer_1" xmlns="http://www.w3.org/2000/svg" xmlns:xlink="http://www.w3.org/1999/xlink" x="0px" y="0px"
	 viewBox="0 0 612 188" style="enable-background:new 0 0 612 188;" xml:space="preserve">
<style type="text/css">
	.st0{fill:#FFFFFF;}
	.st1{fill:#FFAA00;}
	.st2{fill:#009B96;}
	.st3{fill:#FFB800;}
</style>
<g>
	<path class="st0" d="M601.9,142.9l-9.5-90c-0.5-29.8-19.2-40.5-35.3-40.5h-15h-9.3c0,0-5.7,0-9.8,3.8c-4.1,3.7-5.3,11.3-5.3,11.3
		c-0.3-0.4-0.5-0.9-0.8-1.2c-7.5-9.1-17.5-14.1-28.3-14.1c0,0-20.1,0-22.6,0c-2.4,0-6,0.8-6,0.8c-11.4,3.1-17.7,13.1-22.7,23.5
		c-12.6,25.1-21.6,43.9-27.9,58.2c-0.6-1.2-1.3-2.4-2.2-3.6c-3.9-5.2-9.7-8.2-16-8.2c-3.7,0-7.5,1.1-10.9,3.2v-8.7
		c0-11.8-9-20.7-20.9-20.7c-11.9,0-20.9,8.9-20.9,20.7v9.8C333,84.5,326.7,83,320,83c-12.4,0-23.2,5.1-30.6,13.3
		C282,88.1,271.2,83,259.1,83c-8.6,0-16.4,2.5-23,6.9V77.5c0-11.8-9-20.7-20.9-20.7c-7.9,0-14.4,3.9-18,10
		c-6.6-5.5-15.4-8.7-25.6-8.7h-28.4c-5.1,0-10.9,2.7-14.6,5.4c-3.9-3.5-7.1-7-19.3-6.7c-12.1,0.4-16.9,5.6-20.3,13.5
		c-6.6-6.9-16.2-11.6-29.3-11.6H32.1C19.5,58.6,10,68.2,10,80.8V146c0,11.8,9,20.6,21,20.6c12,0,21-8.9,21-20.6v-7.9h7.7
		c12.4,0,20.6-3.2,28.6-10.2c0,11.1,0.1,12.7,0.1,22.7c0,15.2,13.6,16,20.9,16c7.4,0,16.8-2.1,20.5-5.6c3.7,2.7,8.2,4.3,13.3,4.3
		h30.6c9.6,0,17.9-2.7,24.2-7.5c3.7,5.4,9.9,8.8,17.3,8.8c7.7,0,14.2-3.8,17.8-9.6c7,5.8,16.1,9.3,26,9.3c12.1,0,22.9-5.2,30.3-13.5
		c7.4,8.4,18.2,13.5,30.6,13.5c8.8,0,17-2.4,23.5-6.8c3.8,4.4,9.4,7.1,15.9,7.1c7,0,13-3.1,16.7-8c3.9,5.1,9.5,8,15.7,8
		c3.9,0,7.9-1.2,11.6-3.5c0.3-0.2,0.6-0.4,0.9-0.7c5.6,4.6,14,8.5,26.3,8.5h3.7l0.4-0.1l0.5,0.1h2.8h6.5h0.6l0.7,0
		c13.9-0.8,21.2-12.7,26.5-21.4h5.7c1,3.2,2,5.7,3.1,7.8c4.4,8.5,12.4,13.6,21.4,13.6c0,0,8.5,1.1,25.1,0.8c16.6-0.3,19.8-3,19.8-3
		c6.1,2,12.5,3.3,19.2,3.3h6.5c16,0,24.9-9.7,27.8-18.8l1.1-3.3v-3.5v-1.1v-1.2L601.9,142.9z"/>
	<g>
		<path class="st1" d="M467,34.8c3.5-0.3,21.6-0.2,21.6-0.2c8.1,0,14.6,7.9,19.4,23.6c17.9,37.5,31.9,85.8,26.3,89.4
			c-5.6,3.6-28,2.3-31.7,0.8c-3.7-1.5-6.6-23.4-7.8-26.9c-1.2-3.5-5.2-3.4-10.6-4.6c-5.4-1.2-13.2-2.9-19.2-2.9
			c-4.3,1.2-3.2,4.5-7,16c-3.8,11.5-6.3,16-10.8,17.8c-4.5,1.9-9.6,1.3-16.6,0.6c-6.9-0.7-11.8-0.8-14-6.5
			c-2.1-5.7,13.6-41.5,40.8-95.6C461,39.2,463.5,35.2,467,34.8z M480,67.9l-9.7,23.6v1.1c0,2.6,6.1,4.4,18.2,5.4c0,0,1.7,0,1.1-2.2
			c-0.6-2.1-6.9-25.8-7.5-27.9C481.6,65.8,480,67.9,480,67.9z"/>
		<path class="st1" d="M542,34.9h15c8.5,0,12.8,6.4,12.8,19.3l9.6,91.1v1.1c-0.7,2.1-2.8,3.2-6.4,3.2h-6.5
			c-10.9,0-27.7-2.9-27.8-11.8c-0.1-9,0.1-96.5,0-99.6C538.7,35,542,34.9,542,34.9z"/>
		<path class="st2" d="M143.3,152.7c-5.7,0-9.5-3.9-9.5-9.8V80.4c0-5.9,3.8-9.8,9.5-9.8h28.4c15,0,25.2,9.2,25.2,23.8
			c0,7.4-4.2,13.7-9.2,16.3c7.4,2.6,11.2,10.3,11.2,17.8c0,14.4-9,24.3-25.1,24.3L143.3,152.7L143.3,152.7z M150.7,104.2H171
			c5.7,0,9-4.1,9-9.1c0-5.1-3.2-9.1-9-9.1h-20.3V104.2z M173,118.7h-22.3v18.7H173c5.6,0,9.1-4,9.1-9.2
			C182.1,122.8,178.6,118.7,173,118.7z"/>
		<path class="st2" d="M223.6,145.8c0,5.1-3.5,8.1-8.3,8.1c-4.8,0-8.3-3-8.3-8.1V77.5c0-5.1,3.5-8.2,8.3-8.2c4.8,0,8.3,3.1,8.3,8.2
			V145.8z"/>
		<path class="st2" d="M287.4,124.4c0,16.3-12.3,29.3-28.3,29.3c-16,0-28.4-13-28.4-29.3c0-16.2,12.4-28.8,28.4-28.8
			C275.1,95.6,287.4,108.2,287.4,124.4z M247.3,124.4c0,8,5,14.1,11.8,14.1c6.7,0,11.7-6.2,11.7-14.1c0-7.9-5.1-13.7-11.7-13.7
			C252.2,110.7,247.3,116.6,247.3,124.4z"/>
		<path class="st2" d="M291.7,124.5c0-16.5,11.7-28.9,28.3-28.9c10.3,0,17.9,4.5,22.3,10.9c2.3,3.3,1.6,8.3-1.8,11
			c-3.2,2.5-8.6,2.2-11-1.3c-1.9-2.7-4.5-5.5-9.4-5.5c-7.1,0-11.7,5.9-11.7,13.8c0,7.9,4.6,14,11.7,14c5.3,0,8.6-2.8,10.8-5.7
			c2.6-3.4,7.3-3.7,10.7-0.7c2.9,2.8,3.3,7.4,1.3,10.5c-4.1,6.5-12.5,11-22.8,11C303.4,153.7,291.7,141.3,291.7,124.5z"/>
		<path class="st2" d="M367.7,112.8l18-15.1c3.8-3.1,8.6-2.7,11.3,1c2.7,3.5,2.8,7.9-1,11.1l-11.3,9.5l13.7,21.6
			c2.7,4.3,1.9,9.1-1.9,11.6c-3.7,2.4-8,2.2-10.8-2.1l-13.3-20.9l-4.8,4v12.3c0,5.1-3.5,8.1-8.3,8.1c-4.8,0-8.3-3-8.3-8.1V77.5
			c0-5.1,3.5-8.2,8.3-8.2c4.8,0,8.3,3.1,8.3,8.2V112.8z"/>
		<path class="st3" d="M109.4,69.3c5.2,0,9.6,4.5,9.6,9.9c0,5.4-4.4,9.9-9.6,9.9c-5.2,0-9.6-4.5-9.6-9.9
			C99.8,73.8,104.2,69.3,109.4,69.3z M117.7,145.8c0,5.1-3.5,8.1-8.3,8.1c-4.8,0-8.3-3-8.3-8.1v-42c0-5.1,3.5-8.2,8.3-8.2
			c4.8,0,8.3,3,8.3,8.2V145.8z"/>
		<g>
			<path class="st3" d="M39.8,146c0,5.1-3.8,8.4-8.7,8.4c-4.9,0-8.7-3.2-8.7-8.4V80.8c0-5.9,3.9-9.8,9.8-9.8h27.7
				c19.7,0,27.7,13.7,27.7,27.4c0,13.8-8.1,27.4-27.7,27.4h-20V146z M39.8,110.2h18.6c8.8,0,11.7-6,11.7-11.9
				c0-5.9-2.8-11.9-11.7-11.9H39.8V110.2z"/>
		</g>
	</g>
</g>
</svg>
