<?xml version="1.0" encoding="utf-8"?>
<!-- Generator: Adobe Illustrator 16.0.0, SVG Export Plug-In . SVG Version: 6.00 Build 0)  -->
<!DOCTYPE svg PUBLIC "-//W3C//DTD SVG 1.1//EN" "http://www.w3.org/Graphics/SVG/1.1/DTD/svg11.dtd">
<svg version="1.1" id="Layer_1" xmlns="http://www.w3.org/2000/svg" xmlns:xlink="http://www.w3.org/1999/xlink" x="0px" y="0px"
	 width="116px" height="95px" viewBox="0 0 116 95" enable-background="new 0 0 116 95" xml:space="preserve">
<title>microbit-illustration</title>
<desc>Created with Sketch.</desc>
<g>
	<g>
		<g>
			<path fill="#FFFFFF" d="M108.945,71.031c-1.805,1.723-4.939,4.114-8.578,4.237c-0.113,0.005-0.227,0.006-0.34,0.006
				c-1.664,0-2.92-0.442-3.832-1.345c-1.674-1.664-1.6-4.295-1.508-7.628c0.027-1.038,0.057-2.216,0.043-3.46
				c-0.029-2.344-1.311-4.914-3.52-7.057c-2.945-2.854-7.033-4.511-10.941-4.438c-4.25,0.082-8.184,0.943-11.99,1.776
				c-3.533,0.773-6.87,1.501-9.896,1.419c-0.129-0.004-0.255-0.015-0.383-0.021c-0.128,0.006-0.255,0.017-0.383,0.021
				c-3.026,0.082-6.365-0.646-9.897-1.419c-3.806-0.833-7.741-1.694-11.988-1.776c-3.91-0.072-7.996,1.584-10.942,4.438
				c-2.208,2.143-3.491,4.713-3.521,7.057c-0.015,1.244,0.016,2.422,0.045,3.46c0.092,3.333,0.162,5.964-1.511,7.628
				c-0.913,0.902-2.167,1.345-3.832,1.345c-0.111,0-0.225-0.001-0.34-0.006c-3.638-0.123-6.772-2.515-8.577-4.237l-0.043-0.036
				c0,0.012,0.001,0.021,0.001,0.032c0.015,0.412,0.03,0.817,0.047,1.218c0.002,0.06,0.005,0.12,0.007,0.179
				c0.017,0.4,0.034,0.796,0.052,1.186c0.002,0.055,0.005,0.11,0.009,0.164c0.017,0.383,0.036,0.758,0.056,1.125
				c0.001,0.017,0.001,0.035,0.002,0.052c0.021,0.369,0.04,0.728,0.062,1.08c0.005,0.072,0.008,0.144,0.013,0.216
				c0.021,0.343,0.042,0.682,0.065,1.01c0.002,0.046,0.006,0.089,0.01,0.134c0.021,0.301,0.042,0.595,0.065,0.883
				c0.004,0.054,0.009,0.107,0.012,0.161c0.024,0.304,0.05,0.597,0.075,0.883c0.006,0.065,0.012,0.128,0.018,0.192
				c0.026,0.289,0.053,0.574,0.082,0.845C8.567,89.666,34.139,92.787,58,93.455c23.861-0.668,49.43-3.789,50.41-13.102
				c0.029-0.271,0.059-0.556,0.084-0.845c0.006-0.064,0.012-0.127,0.018-0.192c0.027-0.286,0.051-0.579,0.074-0.883
				c0.006-0.054,0.01-0.107,0.014-0.161c0.023-0.288,0.045-0.582,0.064-0.883c0.004-0.045,0.008-0.088,0.01-0.134
				c0.023-0.328,0.045-0.667,0.064-1.01c0.006-0.072,0.01-0.144,0.016-0.216c0.02-0.353,0.041-0.711,0.061-1.08
				c0-0.017,0.002-0.035,0.002-0.052c0.02-0.367,0.039-0.742,0.055-1.125c0.006-0.054,0.008-0.109,0.01-0.164
				c0.018-0.39,0.035-0.785,0.051-1.186c0.004-0.059,0.006-0.119,0.008-0.179c0.018-0.4,0.033-0.806,0.049-1.218
				c0-0.011,0-0.021,0-0.032L108.945,71.031z M42.957,77.048c-4.826,0-8.74-3.947-8.74-8.818c0-4.872,3.914-8.819,8.74-8.819
				c4.828,0,8.741,3.947,8.741,8.819C51.698,73.101,47.785,77.048,42.957,77.048z M73.041,77.048c-4.826,0-8.74-3.947-8.74-8.818
				c0-4.872,3.914-8.819,8.74-8.819s8.742,3.947,8.742,8.819C81.783,73.101,77.867,77.048,73.041,77.048z"/>
			<g>
				<path fill="#A2A2A2" d="M22.695,82.442c-0.011,0-0.021,0-0.03-0.001c-6.788-0.409-15.207-4.561-15.563-4.738
					c-0.248-0.122-0.349-0.424-0.225-0.672C7,76.785,7.3,76.685,7.548,76.807c0.084,0.043,8.545,4.214,15.119,4.632
					c0.217-0.046,1.128-0.329,1.128-1.839V66.676c0-0.148,0.066-0.29,0.18-0.384c0.115-0.097,0.267-0.136,0.411-0.109
					c0.127,0.024,12.875,2.353,33.624,2.826c0.277,0.005,0.496,0.235,0.489,0.511c-0.005,0.276-0.245,0.512-0.512,0.489
					c-18.322-0.417-30.446-2.279-33.191-2.737V79.6c0,2.041-1.334,2.75-2.039,2.839C22.737,82.441,22.715,82.442,22.695,82.442z"/>
				<path fill="#A2A2A2" d="M93.305,82.442c-0.021,0-0.043-0.001-0.063-0.004c-0.705-0.089-2.039-0.798-2.039-2.839V67.271
					c-2.744,0.458-14.869,2.32-33.192,2.737c-0.272,0.022-0.505-0.213-0.511-0.489c-0.006-0.275,0.213-0.506,0.488-0.511
					c20.75-0.474,33.499-2.802,33.625-2.826c0.145-0.026,0.297,0.013,0.41,0.109c0.113,0.094,0.182,0.235,0.182,0.384V79.6
					c0,1.525,0.922,1.798,1.125,1.839c6.578-0.417,15.037-4.589,15.121-4.632c0.246-0.122,0.547-0.021,0.672,0.225
					c0.121,0.248,0.021,0.55-0.227,0.672c-0.355,0.178-8.775,4.329-15.563,4.738C93.324,82.442,93.314,82.442,93.305,82.442z"/>
			</g>
			<g>
				<path fill="#E7E7E7" d="M6.767,25.426c0.001-0.325,0.001-0.642,0.001-0.949C6.768,24.784,6.768,25.1,6.767,25.426z"/>
				<path fill="#E7E7E7" d="M6.693,49.582c0-0.051,0-0.102,0-0.152C6.693,49.48,6.693,49.531,6.693,49.582z"/>
				<path fill="#E7E7E7" d="M6.711,54.37C6.71,54.313,6.71,54.255,6.71,54.198C6.71,54.255,6.71,54.313,6.711,54.37z"/>
				<path fill="#E7E7E7" d="M6.771,60.705c0-0.007,0-0.012,0-0.018C6.771,60.693,6.771,60.698,6.771,60.705z"/>
				<path fill="#E7E7E7" d="M6.753,59.231c-0.001-0.078-0.002-0.157-0.003-0.235C6.751,59.074,6.752,59.153,6.753,59.231z"/>
				<path fill="#E7E7E7" d="M6.823,63.9c-0.001-0.06-0.002-0.12-0.004-0.18C6.82,63.78,6.821,63.841,6.823,63.9z"/>
				<path fill="#E7E7E7" d="M6.722,56.055c0-0.072-0.001-0.144-0.001-0.217C6.721,55.911,6.722,55.982,6.722,56.055z"/>
				<path fill="#E7E7E7" d="M6.796,62.337c-0.001-0.074-0.003-0.15-0.003-0.226C6.792,62.187,6.795,62.263,6.796,62.337z"/>
				<path fill="#E7E7E7" d="M6.922,68.217c0-0.007,0-0.013,0-0.02C6.922,68.204,6.922,68.21,6.922,68.217z"/>
				<path fill="#E7E7E7" d="M6.968,69.729c-0.002-0.073-0.004-0.147-0.007-0.221C6.964,69.582,6.965,69.656,6.968,69.729z"/>
				<path fill="#E7E7E7" d="M6.708,39.022c0.001-0.409,0.002-0.816,0.005-1.22C6.71,38.208,6.709,38.614,6.708,39.022z"/>
				<path fill="#E7E7E7" d="M6.888,66.888c-0.002-0.071-0.003-0.142-0.006-0.212C6.884,66.746,6.885,66.816,6.888,66.888z"/>
				<path fill="#E7E7E7" d="M6.852,65.331c-0.001-0.048-0.002-0.098-0.003-0.145C6.849,65.233,6.851,65.283,6.852,65.331z"/>
				<path fill="#E7E7E7" d="M6.694,43.198c0-0.122,0.001-0.243,0.001-0.365C6.696,42.956,6.694,43.076,6.694,43.198z"/>
				<path fill="#E7E7E7" d="M6.698,41.825c0.001-0.151,0.001-0.306,0.001-0.458C6.699,41.519,6.699,41.672,6.698,41.825z"/>
				<path fill="#E7E7E7" d="M6.692,44.884c0-0.125,0.001-0.249,0.001-0.374C6.693,44.635,6.692,44.76,6.692,44.884z"/>
				<path fill="#E7E7E7" d="M6.703,40.224c0.001-0.209,0.002-0.418,0.002-0.626C6.705,39.805,6.704,40.013,6.703,40.224z"/>
				<path fill="#E7E7E7" d="M6.691,46.309c0-0.082,0-0.164,0-0.247C6.691,46.145,6.691,46.227,6.691,46.309z"/>
				<path fill="#E7E7E7" d="M6.697,51.188c0-0.087,0-0.176-0.001-0.264C6.697,51.013,6.697,51.102,6.697,51.188z"/>
				<path fill="#E7E7E7" d="M6.703,52.813c0-0.056,0-0.109,0-0.165C6.703,52.704,6.703,52.758,6.703,52.813z"/>
				<path fill="#E7E7E7" d="M6.692,48.034c-0.001-0.119-0.001-0.238-0.001-0.357C6.691,47.796,6.691,47.915,6.692,48.034z"/>
				<path fill="#E7E7E7" d="M6.715,37.367c0.02-4.531,0.045-8.627,0.052-11.855C6.76,28.738,6.734,32.837,6.715,37.367z"/>
				<polygon fill="#E7E7E7" points="7.01,70.985 7.011,70.995 7.011,70.995 				"/>
				<path fill="#FFFFFF" d="M7.413,78.434C7.409,78.38,7.404,78.326,7.4,78.272C7.404,78.326,7.409,78.38,7.413,78.434z"/>
				<path fill="#FFFFFF" d="M7.26,76.246c-0.005-0.072-0.008-0.144-0.013-0.216C7.252,76.103,7.255,76.174,7.26,76.246z"/>
				<path fill="#FFFFFF" d="M7.335,77.39c-0.004-0.045-0.007-0.088-0.01-0.134C7.328,77.302,7.332,77.345,7.335,77.39z"/>
				<path fill="#FFFFFF" d="M7.506,79.509c-0.006-0.064-0.012-0.127-0.018-0.192C7.494,79.382,7.5,79.444,7.506,79.509z"/>
				<path fill="#FFFFFF" d="M7.011,70.995c0,0.012,0.001,0.021,0.001,0.032C7.012,71.017,7.011,71.007,7.011,70.995L7.011,70.995z"
					/>
				<path fill="#FFFFFF" d="M7.127,73.773c-0.004-0.054-0.006-0.109-0.009-0.164C7.121,73.664,7.124,73.72,7.127,73.773z"/>
				<path fill="#FFFFFF" d="M7.067,72.424c-0.002-0.059-0.005-0.119-0.007-0.179C7.062,72.305,7.064,72.365,7.067,72.424z"/>
				<path fill="#FFFFFF" d="M7.186,74.95c-0.001-0.017-0.001-0.035-0.002-0.052C7.184,74.915,7.184,74.934,7.186,74.95z"/>
				<g>
					<path fill="#71C4E8" d="M6.589,21.775L6.589,21.775l0.179,2.66c0-0.151,0.001-0.301,0.001-0.446
						C6.77,23.285,6.684,22.545,6.589,21.775z"/>
					<path fill="#0079FF" d="M6.269,24.47l-0.18-2.662l0.997-0.095c0.102,0.818,0.184,1.553,0.184,2.276v0.446L6.269,24.47z"/>
				</g>
				<path fill="#FFFFFF" d="M22.695,30.156C32.574,31.805,45.006,32.007,58,32.01V31.84C44.697,31.839,32.375,31.687,22.695,30.156z
					"/>
				<circle fill="#FFFFFF" cx="6.771" cy="24.439" r="0.004"/>
				<g>
					<path fill="#71C4E8" d="M6.77,23.989c0,0.146-0.001,0.295-0.001,0.446l0,0C6.768,24.285,6.77,24.135,6.77,23.989z"/>
					<rect x="6.268" y="23.989" fill="#0079FF" width="1.001" height="0.446"/>
				</g>
				<g>
					<path fill="#71C4E8" d="M22.695,30.156c-6.678-1.116-12.191-2.89-15.922-5.714C10.382,27.316,15.885,29.077,22.695,30.156z"/>
					<path fill="#0079FF" d="M22.616,30.649c-7.435-1.177-12.72-3.079-16.155-5.816l0.614-0.791
						c3.419,2.587,8.555,4.425,15.702,5.619L22.616,30.649z"/>
				</g>
				<g>
					<path fill="#B9B9B9" d="M42.957,77.048c4.828,0,8.741-3.947,8.741-8.818c0-4.872-3.914-8.819-8.741-8.819
						c-4.826,0-8.74,3.947-8.74,8.819C34.217,73.101,38.131,77.048,42.957,77.048z M42.957,60.992c3.962,0,7.173,3.241,7.173,7.237
						c0,3.998-3.211,7.237-7.173,7.237c-3.96,0-7.171-3.239-7.171-7.237C35.786,64.233,38.997,60.992,42.957,60.992z"/>
					<path fill="#9C9C9C" d="M42.957,77.549c-5.095,0-9.24-4.182-9.24-9.319c0-5.139,4.146-9.319,9.24-9.319
						c5.096,0,9.243,4.181,9.243,9.319C52.2,73.367,48.053,77.549,42.957,77.549z M42.957,59.911c-4.542,0-8.239,3.732-8.239,8.318
						c0,4.587,3.697,8.318,8.239,8.318c4.545,0,8.242-3.731,8.242-8.318C51.199,63.644,47.502,59.911,42.957,59.911z M42.957,75.967
						c-4.23,0-7.672-3.472-7.672-7.737c0-4.267,3.442-7.737,7.672-7.737c4.231,0,7.674,3.471,7.674,7.737
						C50.631,72.495,47.188,75.967,42.957,75.967z M42.957,61.493c-3.679,0-6.67,3.022-6.67,6.736s2.992,6.736,6.67,6.736
						c3.68,0,6.673-3.022,6.673-6.736S46.637,61.493,42.957,61.493z"/>
				</g>
				<g>
					<ellipse fill="#4E4E4E" cx="42.957" cy="68.229" rx="7.173" ry="7.237"/>
					<path fill="#363636" d="M42.957,75.716c-4.092,0-7.421-3.358-7.421-7.486c0-4.129,3.329-7.487,7.421-7.487
						c4.094,0,7.423,3.358,7.423,7.487C50.38,72.357,47.051,75.716,42.957,75.716z M42.957,61.241c-3.816,0-6.921,3.135-6.921,6.988
						c0,3.853,3.104,6.987,6.921,6.987c3.817,0,6.922-3.135,6.922-6.987C49.879,64.376,46.774,61.241,42.957,61.241z"/>
				</g>
			</g>
			<path fill="#E7E7E7" d="M109.232,25.426c0-0.325,0-0.642-0.002-0.949C109.232,24.784,109.232,25.1,109.232,25.426z"/>
			<path fill="#E7E7E7" d="M109.307,49.582c0-0.051,0-0.102,0-0.152C109.307,49.48,109.307,49.531,109.307,49.582z"/>
			<path fill="#E7E7E7" d="M109.287,54.37c0-0.058,0-0.115,0.004-0.172C109.287,54.255,109.287,54.313,109.287,54.37z"/>
			<path fill="#E7E7E7" d="M109.229,60.705c0-0.007,0-0.012,0-0.018C109.229,60.693,109.229,60.698,109.229,60.705z"/>
			<path fill="#E7E7E7" d="M109.246,59.231c0-0.078,0.004-0.157,0.004-0.235C109.25,59.074,109.246,59.153,109.246,59.231z"/>
			<path fill="#E7E7E7" d="M109.178,63.9c0.002-0.06,0.002-0.12,0.002-0.18C109.18,63.78,109.18,63.841,109.178,63.9z"/>
			<path fill="#E7E7E7" d="M109.279,56.055c0-0.072,0-0.144,0-0.217C109.279,55.911,109.279,55.982,109.279,56.055z"/>
			<path fill="#E7E7E7" d="M109.203,62.337c0.002-0.074,0.002-0.15,0.006-0.226C109.205,62.187,109.205,62.263,109.203,62.337z"/>
			<path fill="#E7E7E7" d="M109.078,68.217c0-0.007,0-0.013,0-0.02C109.078,68.204,109.078,68.21,109.078,68.217z"/>
			<path fill="#E7E7E7" d="M109.031,69.729c0.002-0.073,0.006-0.147,0.008-0.221C109.037,69.582,109.033,69.656,109.031,69.729z"/>
			<path fill="#E7E7E7" d="M109.291,39.022c0-0.409-0.004-0.816-0.004-1.22C109.287,38.208,109.291,38.614,109.291,39.022z"/>
			<path fill="#E7E7E7" d="M109.111,66.888c0.002-0.071,0.006-0.142,0.006-0.212C109.117,66.746,109.113,66.816,109.111,66.888z"/>
			<path fill="#E7E7E7" d="M109.148,65.331c0.002-0.048,0.002-0.098,0.004-0.145C109.15,65.233,109.15,65.283,109.148,65.331z"/>
			<path fill="#E7E7E7" d="M109.305,43.198c0-0.122,0-0.243,0-0.365C109.305,42.956,109.305,43.076,109.305,43.198z"/>
			<path fill="#E7E7E7" d="M109.303,41.825c-0.002-0.151-0.002-0.306-0.002-0.458C109.301,41.519,109.301,41.672,109.303,41.825z"/>
			<path fill="#E7E7E7" d="M109.307,44.884c0-0.125,0-0.249,0-0.374C109.307,44.635,109.307,44.76,109.307,44.884z"/>
			<path fill="#E7E7E7" d="M109.295,40.224c0-0.209,0-0.418-0.002-0.626C109.295,39.805,109.295,40.013,109.295,40.224z"/>
			<path fill="#E7E7E7" d="M109.311,46.309c0-0.082,0-0.164,0-0.247C109.311,46.145,109.311,46.227,109.311,46.309z"/>
			<path fill="#E7E7E7" d="M109.303,51.188c0-0.087,0-0.176,0-0.264C109.303,51.013,109.303,51.102,109.303,51.188z"/>
			<path fill="#E7E7E7" d="M109.295,52.813c0-0.056,0.002-0.109,0.002-0.165C109.297,52.704,109.295,52.758,109.295,52.813z"/>
			<path fill="#E7E7E7" d="M109.307,48.034c0.004-0.119,0.004-0.238,0.004-0.357C109.311,47.796,109.311,47.915,109.307,48.034z"/>
			<path fill="#E7E7E7" d="M109.285,37.367c-0.02-4.531-0.045-8.627-0.053-11.855C109.24,28.738,109.266,32.837,109.285,37.367z"/>
			<polygon fill="#E7E7E7" points="108.988,70.985 108.988,70.995 108.988,70.995 			"/>
			<path fill="#FFFFFF" d="M108.988,70.995c0,0.012,0,0.021,0,0.032C108.988,71.017,108.988,71.007,108.988,70.995L108.988,70.995z"
				/>
			<path fill="#FFFFFF" d="M108.932,72.424c0.004-0.059,0.006-0.119,0.008-0.179C108.938,72.305,108.936,72.365,108.932,72.424z"/>
			<g>
				<path fill="#71C4E8" d="M109.412,21.775L109.412,21.775l-0.182,2.66c0-0.151,0-0.301,0-0.446
					C109.23,23.285,109.314,22.545,109.412,21.775z"/>
				<path fill="#0079FF" d="M109.73,24.47l-1.002-0.034v-0.446c0-0.723,0.086-1.458,0.186-2.276l0.996,0.095L109.73,24.47z"/>
			</g>
			<path fill="#E7E7E7" d="M109.311,46.062c-0.004-0.394-0.004-0.786-0.004-1.178c0-0.125,0-0.249,0-0.374
				c-0.002-0.439-0.002-0.877-0.002-1.313c0-0.122,0-0.243,0-0.365c-0.002-0.337-0.002-0.673-0.002-1.008
				c-0.002-0.151-0.002-0.306-0.002-0.458c-0.004-0.382-0.004-0.764-0.006-1.143c0-0.209,0-0.418-0.002-0.626
				c0-0.192,0-0.382-0.002-0.575c0-0.409-0.004-0.816-0.004-1.22c-0.002-0.145-0.002-0.292-0.002-0.435
				c-0.02-4.531-0.045-8.627-0.053-11.855c0-0.028,0-0.058,0-0.086c0-0.325,0-0.642-0.002-0.949c0-0.014,0-0.025,0-0.038
				c0,0-0.002,0.001-0.002,0.002c-3.609,2.875-9.115,4.635-15.924,5.714C83.426,31.805,70.994,32.007,58,32.01
				c-12.994-0.002-25.426-0.205-35.305-1.854c-6.81-1.079-12.313-2.839-15.922-5.714c-0.001-0.001-0.002-0.002-0.005-0.002
				c0,0.012,0,0.024,0,0.038c0,0.307,0,0.624-0.001,0.949c0,0.028,0,0.058,0,0.086C6.76,28.74,6.734,32.836,6.715,37.367
				c-0.001,0.144-0.001,0.29-0.002,0.435c-0.002,0.404-0.003,0.812-0.005,1.22c0,0.192-0.001,0.382-0.002,0.575
				c0,0.208-0.001,0.417-0.002,0.626c-0.001,0.378-0.002,0.761-0.003,1.143c0,0.152,0,0.307-0.001,0.458
				c-0.001,0.335-0.001,0.671-0.002,1.008c0,0.123-0.001,0.243-0.001,0.365c0,0.436-0.001,0.874-0.001,1.313
				c0,0.125-0.001,0.249-0.001,0.374c0,0.392,0,0.784-0.001,1.178c0,0.083,0,0.165,0,0.247c0,0.455,0,0.911,0,1.368
				c0,0.12,0,0.238,0.001,0.357c0,0.465,0,0.931,0.001,1.396c0,0.051,0,0.102,0,0.152c0.001,0.448,0.001,0.896,0.002,1.343
				c0.001,0.088,0.001,0.177,0.001,0.264c0.001,0.487,0.002,0.973,0.006,1.46c0,0.056,0,0.109,0,0.165
				c0.002,0.462,0.005,0.923,0.007,1.385c0,0.057,0,0.114,0.001,0.172c0.002,0.49,0.006,0.98,0.01,1.468
				c0,0.073,0.001,0.145,0.001,0.217c0.008,0.985,0.017,1.969,0.028,2.941c0.001,0.078,0.002,0.157,0.003,0.235
				c0.005,0.487,0.011,0.974,0.017,1.456c0,0.006,0,0.011,0,0.018c0.007,0.471,0.015,0.939,0.022,1.406
				c0,0.075,0.002,0.151,0.003,0.226c0.006,0.465,0.015,0.926,0.023,1.384c0.001,0.06,0.002,0.12,0.004,0.18
				c0.007,0.431,0.017,0.86,0.025,1.286c0.001,0.047,0.002,0.097,0.003,0.145c0.01,0.451,0.021,0.901,0.03,1.345
				c0.002,0.07,0.003,0.141,0.006,0.212c0.011,0.44,0.022,0.878,0.034,1.31c0,0.007,0,0.013,0,0.02
				c0.012,0.436,0.025,0.866,0.039,1.292c0.003,0.073,0.005,0.147,0.007,0.221c0.013,0.424,0.028,0.843,0.042,1.256
				c0,0.002,0.001,0.006,0.001,0.01l0.043,0.036l-0.162-5.619c0.573,0.407,1.212,1.023,1.631,1.438
				c1.101,1.087,4.122,4.381,7.243,4.487c0.758,0.024,1.155-0.092,1.265-0.2c0.468-0.464,0.404-2.829,0.351-4.729
				c-0.029-1.076-0.062-2.294-0.046-3.616c0.043-3.434,1.717-6.926,4.715-9.83c3.684-3.569,8.836-5.631,13.756-5.547
				c4.633,0.089,8.947,1.035,12.751,1.867c3.437,0.751,6.404,1.404,8.948,1.329c0.165-0.005,0.329-0.02,0.494-0.027
				c0.165,0.008,0.329,0.022,0.494,0.027c2.543,0.075,5.51-0.578,8.946-1.329c3.805-0.832,8.117-1.777,12.752-1.867
				c4.92-0.083,10.074,1.978,13.756,5.547c2.998,2.904,4.672,6.396,4.715,9.83c0.016,1.322-0.016,2.54-0.045,3.616
				c-0.053,1.899-0.117,4.265,0.35,4.729c0.111,0.108,0.508,0.225,1.266,0.2c3.123-0.106,6.145-3.4,7.242-4.487
				c0.42-0.415,1.059-1.031,1.633-1.438l-0.162,5.619l0.043-0.036c0-0.004,0-0.008,0-0.01c0.018-0.413,0.029-0.832,0.043-1.256
				c0.002-0.073,0.006-0.147,0.008-0.221c0.014-0.426,0.027-0.856,0.039-1.292c0-0.007,0-0.013,0-0.02
				c0.012-0.432,0.023-0.869,0.033-1.31c0.002-0.071,0.006-0.142,0.006-0.212c0.012-0.443,0.021-0.894,0.031-1.345
				c0.002-0.048,0.002-0.098,0.004-0.145c0.008-0.426,0.018-0.855,0.025-1.286c0.002-0.06,0.002-0.12,0.002-0.18
				c0.01-0.458,0.016-0.919,0.023-1.384c0.002-0.074,0.002-0.15,0.006-0.226c0.006-0.467,0.014-0.936,0.02-1.406
				c0-0.007,0-0.012,0-0.018c0.006-0.482,0.012-0.969,0.018-1.456c0-0.078,0.004-0.157,0.004-0.235
				c0.012-0.973,0.02-1.956,0.029-2.941c0-0.072,0-0.144,0-0.217c0.004-0.487,0.006-0.978,0.008-1.468c0-0.058,0-0.115,0.004-0.172
				c0.002-0.462,0.002-0.923,0.004-1.385c0-0.056,0.002-0.109,0.002-0.165c0.004-0.487,0.004-0.973,0.006-1.46
				c0-0.087,0-0.176,0-0.264c0.002-0.447,0.002-0.895,0.004-1.343c0-0.051,0-0.102,0-0.152c0-0.465,0-0.931,0-1.396
				c0.004-0.119,0.004-0.238,0.004-0.357c0-0.458,0-0.913,0-1.368C109.311,46.227,109.311,46.145,109.311,46.062z"/>
			<path fill="#FFFFFF" d="M103.496,8.915c0,0-8.488-7.017-45.496-7.37c-37.008,0.353-45.497,7.37-45.497,7.37
				c-7.031,4.868-6.362,9.221-5.914,12.861C15.703,26.424,35.338,27.83,58,27.839c22.66-0.009,42.299-1.415,51.412-6.063
				C109.859,18.135,110.529,13.783,103.496,8.915z"/>
			<path fill="#FFFFFF" d="M93.305,30.156C83.426,31.805,70.994,32.007,58,32.01V31.84C71.301,31.839,83.623,31.687,93.305,30.156z"
				/>
			<circle fill="#FFFFFF" cx="109.229" cy="24.439" r="0.003"/>
			<g>
				<path fill="#71C4E8" d="M109.23,23.989c0,0.146,0,0.295,0,0.446l0,0C109.23,24.285,109.23,24.135,109.23,23.989z"/>
				<rect x="108.729" y="23.989" fill="#0079FF" width="1.004" height="0.446"/>
			</g>
			<g>
				<path fill="#71C4E8" d="M93.305,30.156c6.68-1.116,12.191-2.89,15.924-5.714C105.619,27.316,100.113,29.077,93.305,30.156z"/>
				<path fill="#0079FF" d="M93.383,30.649l-0.16-0.988c7.148-1.193,12.283-3.032,15.703-5.619l0.611,0.791
					C106.104,27.57,100.818,29.473,93.383,30.649z"/>
			</g>
			<g>
				<path fill="#71C4E8" d="M109.412,21.775C100.299,26.424,80.66,27.83,58,27.839c-22.662-0.009-42.297-1.415-51.411-6.063
					c0.094,0.77,0.18,1.509,0.18,2.214c0,0.146-0.001,0.295-0.001,0.446l0.001,0.004c0.001,0,0.002,0.001,0.003,0.002
					c3.731,2.824,9.244,4.598,15.922,5.714c9.68,1.531,22.002,1.684,35.305,1.685c13.301-0.001,25.623-0.153,35.305-1.685
					c6.68-1.116,12.191-2.89,15.924-5.714c0-0.001,0.002-0.002,0.002-0.002v-0.004c0-0.151,0-0.301,0-0.446
					C109.23,23.285,109.314,22.545,109.412,21.775z"/>
				<path fill="#0079FF" d="M58,32.341L58,32.341c-13.024-0.001-25.531-0.132-35.384-1.692c-7.315-1.222-12.595-3.122-16.146-5.809
					l-0.178-0.134L6.27,24.482l-0.002-0.273v-0.219c0-0.665-0.079-1.369-0.175-2.153l-0.115-0.935l0.839,0.428
					c7.905,4.033,24.648,6,51.184,6.009c26.535-0.009,43.277-1.976,51.184-6.009l0.84-0.428l-0.117,0.935
					c-0.096,0.785-0.176,1.487-0.176,2.153l0.002,0.716l-0.227,0.151c-3.529,2.671-8.809,4.571-16.117,5.793
					C83.531,32.209,71.023,32.34,58,32.341z M7.269,24.188c3.407,2.507,8.487,4.3,15.509,5.473
					C32.553,31.208,45.017,31.338,58,31.34c12.982-0.001,25.447-0.132,35.229-1.679c7.006-1.17,12.084-2.961,15.5-5.473v-0.199
					c0-0.446,0.035-0.896,0.08-1.368C100.457,26.458,83.813,28.33,58,28.339c-25.814-0.01-42.459-1.882-50.81-5.718
					c0.047,0.472,0.078,0.923,0.078,1.368V24.188z"/>
			</g>
			<g>
				<path fill="#71C4E8" d="M58,3.62c-22.322,0-40.417,4.411-40.417,6.561c0,3.006,18.095,5.444,40.417,5.444
					c22.322,0,40.416-2.438,40.416-5.444C98.416,8.031,80.322,3.62,58,3.62z M58,13.122c-17.618,0-32.169-1.907-32.169-4.259
					c0-2.354,14.552-4.26,32.169-4.26c17.615,0,32.168,1.906,32.168,4.26C90.168,11.215,75.615,13.122,58,13.122z"/>
				<path fill="#0079FF" d="M58,3.62c22.322,0,40.416,4.411,40.416,6.561c0,3.006-18.094,5.444-40.416,5.444
					c-22.322,0-40.417-2.438-40.417-5.444C17.583,8.031,35.678,3.62,58,3.62 M58,13.122c17.615,0,32.168-1.907,32.168-4.259
					c0-2.354-14.553-4.26-32.168-4.26c-17.618,0-32.169,1.906-32.169,4.26C25.831,11.215,40.382,13.122,58,13.122 M58,2.618
					c-13.467,0-23.802,1.562-28.764,2.492c-12.654,2.373-12.654,4.403-12.654,5.07c0,1.631,2.069,2.499,3.873,3.074
					c2.091,0.666,5.063,1.261,8.832,1.769c7.677,1.034,17.874,1.604,28.713,1.604c10.84,0,21.035-0.569,28.713-1.604
					c3.77-0.508,6.74-1.103,8.832-1.769c1.803-0.575,3.873-1.443,3.873-3.074c0-0.667,0-2.698-12.654-5.07
					C81.801,4.18,71.467,2.618,58,2.618L58,2.618z M27.001,8.863c0.574-0.385,2.609-1.319,9.43-2.146
					C42.355,6,50.015,5.604,58,5.604c7.984,0,15.645,0.396,21.568,1.114c6.82,0.827,8.855,1.76,9.432,2.146
					c-0.578,0.386-2.613,1.319-9.432,2.145C73.643,11.725,65.984,12.121,58,12.121c-7.985,0-15.644-0.396-21.567-1.113
					C29.614,10.182,27.577,9.249,27.001,8.863L27.001,8.863z"/>
			</g>
			<g>
				<path fill="#B9B9B9" d="M81.783,68.229c0-4.872-3.916-8.819-8.742-8.819s-8.74,3.947-8.74,8.819c0,4.871,3.914,8.818,8.74,8.818
					S81.783,73.101,81.783,68.229z M80.213,68.229c0,3.998-3.211,7.237-7.172,7.237s-7.17-3.239-7.17-7.237
					c0-3.996,3.209-7.237,7.17-7.237S80.213,64.233,80.213,68.229z"/>
				<path fill="#9C9C9C" d="M73.041,77.549c-5.096,0-9.24-4.182-9.24-9.319c0-5.139,4.145-9.319,9.24-9.319
					c5.098,0,9.24,4.181,9.24,9.319C82.281,73.367,78.139,77.549,73.041,77.549z M73.041,59.911c-4.543,0-8.24,3.732-8.24,8.318
					c0,4.587,3.697,8.318,8.24,8.318s8.238-3.731,8.238-8.318C81.279,63.644,77.584,59.911,73.041,59.911z M73.041,75.967
					c-4.23,0-7.672-3.472-7.672-7.737c0-4.267,3.441-7.737,7.672-7.737s7.674,3.471,7.674,7.737
					C80.715,72.495,77.271,75.967,73.041,75.967z M73.041,61.493c-3.678,0-6.672,3.022-6.672,6.736s2.994,6.736,6.672,6.736
					c3.68,0,6.672-3.022,6.672-6.736S76.721,61.493,73.041,61.493z"/>
			</g>
			<g>
				<ellipse fill="#4E4E4E" cx="73.041" cy="68.229" rx="7.17" ry="7.237"/>
				<path fill="#363636" d="M73.041,75.716c-4.092,0-7.422-3.358-7.422-7.486c0-4.129,3.33-7.487,7.422-7.487
					c4.094,0,7.424,3.358,7.424,7.487C80.465,72.357,77.135,75.716,73.041,75.716z M73.041,61.241c-3.816,0-6.922,3.135-6.922,6.988
					c0,3.853,3.105,6.987,6.922,6.987c3.818,0,6.924-3.135,6.924-6.987C79.965,64.376,76.859,61.241,73.041,61.241z"/>
			</g>
			<g>
				<path fill="#71C4E8" d="M107.475,66.851c-1.098,1.087-4.119,4.381-7.242,4.487c-0.758,0.024-1.154-0.092-1.266-0.2
					c-0.467-0.464-0.402-2.829-0.35-4.729c0.029-1.076,0.061-2.294,0.045-3.616c-0.043-3.434-1.717-6.926-4.715-9.83
					c-3.682-3.569-8.836-5.631-13.756-5.547c-4.635,0.089-8.947,1.035-12.752,1.867c-3.436,0.751-6.402,1.404-8.946,1.329
					c-0.165-0.005-0.329-0.02-0.494-0.027c-0.165,0.008-0.329,0.022-0.494,0.027c-2.544,0.075-5.511-0.578-8.948-1.329
					c-3.804-0.832-8.118-1.777-12.751-1.867c-4.919-0.083-10.072,1.978-13.756,5.547c-2.998,2.904-4.672,6.396-4.715,9.83
					c-0.016,1.322,0.017,2.54,0.046,3.616c0.053,1.899,0.117,4.265-0.351,4.729c-0.11,0.108-0.507,0.225-1.265,0.2
					c-3.121-0.106-6.142-3.4-7.243-4.487c-0.419-0.415-1.058-1.031-1.631-1.438l0.162,5.619c1.804,1.723,4.939,4.114,8.577,4.237
					c0.115,0.005,0.229,0.006,0.34,0.006c1.665,0,2.919-0.442,3.832-1.345c1.673-1.664,1.603-4.295,1.511-7.628
					c-0.029-1.038-0.06-2.216-0.045-3.46c0.029-2.344,1.313-4.914,3.521-7.057c2.946-2.854,7.032-4.511,10.942-4.438
					c4.247,0.082,8.182,0.943,11.988,1.776c3.532,0.773,6.871,1.501,9.897,1.419c0.128-0.004,0.255-0.015,0.383-0.021
					c0.128,0.006,0.254,0.017,0.383,0.021c3.026,0.082,6.363-0.646,9.896-1.419c3.807-0.833,7.74-1.694,11.99-1.776
					c3.908-0.072,7.996,1.584,10.941,4.438c2.209,2.143,3.49,4.713,3.52,7.057c0.014,1.244-0.016,2.422-0.043,3.46
					c-0.092,3.333-0.166,5.964,1.508,7.628c0.912,0.902,2.168,1.345,3.832,1.345c0.113,0,0.227-0.001,0.34-0.006
					c3.639-0.123,6.773-2.515,8.578-4.237l0.162-5.619C108.533,65.819,107.895,66.436,107.475,66.851z"/>
				<path fill="#0079FF" d="M100.027,75.775c-1.803,0-3.172-0.487-4.182-1.491c-1.832-1.816-1.756-4.545-1.66-7.997
					c0.031-1.132,0.059-2.248,0.045-3.439c-0.027-2.21-1.256-4.653-3.367-6.703c-2.779-2.692-6.646-4.3-10.346-4.3l-0.242,0.004
					c-4.195,0.08-8.107,0.937-11.889,1.764c-3.561,0.779-6.917,1.514-10.018,1.431c-0.081-0.003-0.162-0.008-0.244-0.014
					l-0.147-0.007l-0.103,0.007c-0.081,0.006-0.162,0.011-0.243,0.014c-3.101,0.082-6.458-0.651-10.018-1.431
					c-3.782-0.827-7.693-1.684-11.892-1.764l-0.241-0.004c-3.699,0-7.565,1.607-10.343,4.301c-2.113,2.049-3.341,4.491-3.368,6.702
					c-0.015,1.191,0.012,2.308,0.043,3.439c0.097,3.452,0.171,6.181-1.657,7.997c-1.08,1.069-2.551,1.559-4.543,1.485
					c-3.708-0.127-6.889-2.45-8.904-4.377L6.56,71.25l-0.196-6.825l0.817,0.579c0.586,0.416,1.214,1.016,1.695,1.491l0.286,0.287
					c1.178,1.186,3.935,3.965,6.621,4.057c0.503,0.014,0.816-0.046,0.912-0.08c0.294-0.473,0.223-3.074,0.187-4.337
					c-0.029-1.073-0.062-2.292-0.046-3.635c0.044-3.568,1.773-7.186,4.869-10.185c3.676-3.563,8.841-5.69,13.816-5.69l0.295,0.002
					c4.682,0.091,9.018,1.04,12.843,1.877l0.087,0.019c3.384,0.739,6.278,1.377,8.745,1.301c0.097-0.003,0.192-0.01,0.287-0.016
					L58,50.083l0.221,0.013c0.096,0.006,0.191,0.013,0.287,0.016c2.479,0.076,5.363-0.562,8.748-1.302l0.078-0.017
					c3.832-0.838,8.168-1.788,12.848-1.878l0.299-0.002c4.975,0,10.139,2.127,13.814,5.69c3.096,2.999,4.824,6.616,4.869,10.185
					c0.016,1.343-0.018,2.562-0.047,3.635c-0.035,1.258-0.109,3.844,0.189,4.337c0.1,0.035,0.396,0.096,0.912,0.08
					c2.682-0.092,5.441-2.871,6.619-4.058l0.285-0.286c0.482-0.477,1.111-1.076,1.693-1.491l0.82-0.579l-0.197,6.826l-0.148,0.142
					c-2.018,1.927-5.197,4.25-8.906,4.377C100.264,75.774,100.146,75.775,100.027,75.775z M80.518,50.844
					c3.955,0,8.082,1.714,11.041,4.582c2.303,2.233,3.641,4.935,3.672,7.41c0.016,1.209-0.012,2.335-0.043,3.479
					c-0.09,3.211-0.16,5.747,1.361,7.259c0.873,0.864,2.119,1.256,3.803,1.194c3.307-0.112,6.203-2.182,8.1-3.958l0.123-4.314
					c-0.275,0.249-0.537,0.503-0.746,0.712l-0.281,0.28c-1.367,1.378-4.213,4.245-7.297,4.352c-0.072,0.002-0.141,0.004-0.209,0.004
					c-0.711,0-1.191-0.117-1.424-0.35c-0.584-0.574-0.576-2.393-0.5-5.099c0.027-1.064,0.063-2.272,0.045-3.594
					c-0.041-3.302-1.662-6.667-4.564-9.479c-3.494-3.386-8.396-5.408-13.117-5.408l-0.281,0.002
					c-4.578,0.09-8.863,1.026-12.646,1.854l-0.082,0.019c-3.451,0.755-6.406,1.399-8.992,1.324c-0.106-0.004-0.214-0.01-0.322-0.017
					L58,51.086l-0.157,0.01c-0.107,0.007-0.215,0.013-0.323,0.017c-2.574,0.073-5.539-0.569-8.988-1.323l-0.08-0.018
					c-3.788-0.829-8.072-1.766-12.655-1.855l-0.277-0.002c-4.721,0-9.626,2.022-13.12,5.408c-2.902,2.813-4.522,6.178-4.564,9.478
					c-0.016,1.323,0.017,2.531,0.046,3.596c0.076,2.706,0.081,4.524-0.5,5.099c-0.255,0.253-0.783,0.374-1.633,0.346
					c-3.084-0.106-5.931-2.974-7.298-4.352l-0.28-0.28c-0.21-0.209-0.472-0.463-0.748-0.712l0.125,4.314
					c1.895,1.776,4.794,3.846,8.098,3.958c1.704,0.062,2.932-0.33,3.805-1.194c1.52-1.512,1.45-4.048,1.361-7.259
					c-0.031-1.143-0.059-2.27-0.044-3.479c0.031-2.476,1.369-5.177,3.673-7.41c2.959-2.868,7.086-4.582,11.04-4.582l0.26,0.004
					c4.298,0.082,8.257,0.948,12.086,1.787c3.5,0.766,6.794,1.487,9.776,1.406c0.069-0.001,0.136-0.006,0.206-0.011l0.168-0.01
					l0.213,0.01c0.069,0.005,0.137,0.01,0.206,0.011c2.987,0.077,6.278-0.641,9.776-1.406c3.83-0.839,7.789-1.705,12.086-1.787
					L80.518,50.844z"/>
			</g>
		</g>
		<path fill="#A2A2A2" d="M58,93.956h-0.015C35.351,93.321,8.148,90.455,7.09,80.405c-0.028-0.272-0.056-0.56-0.083-0.851
			l-0.017-0.195c-0.025-0.285-0.052-0.581-0.076-0.886l-0.012-0.157c-0.023-0.294-0.045-0.588-0.067-0.892l-0.006-0.105
			C6.803,76.96,6.78,76.62,6.76,76.276l-0.011-0.199c-0.023-0.371-0.044-0.73-0.063-1.1l-0.002-0.054
			c-0.021-0.366-0.039-0.744-0.057-1.126l-0.008-0.167c-0.017-0.388-0.035-0.784-0.052-1.187l-0.105-2.919
			c-0.015-0.427-0.026-0.857-0.039-1.295L6.25,59.002c-0.011-0.974-0.021-1.955-0.027-2.944L6.19,46.062l0.062-16.577
			c0.006-1.432,0.012-2.765,0.014-3.974l0.001-1.035l-0.198-2.821c-0.453-3.65-1.015-8.191,6.148-13.151
			c0.318-0.265,9.016-7.109,45.778-7.459c36.771,0.351,45.47,7.194,45.819,7.485c7.131,4.934,6.566,9.475,6.117,13.125l-0.025,0.182
			l-0.176,2.634l0.002,1.042c0.004,1.208,0.008,2.541,0.016,3.973l0.061,16.823l-0.031,9.742c-0.008,0.997-0.018,1.979-0.027,2.952
			l-0.172,9.21l-0.045,1.532c-0.016,0.426-0.027,0.846-0.045,1.258c-0.016,0.457-0.031,0.862-0.049,1.264l-0.006,0.183
			c-0.018,0.398-0.035,0.795-0.053,1.184l-0.006,0.124c-0.02,0.424-0.039,0.802-0.059,1.169l-0.002,0.055
			c-0.021,0.367-0.041,0.727-0.063,1.082l-0.012,0.215c-0.021,0.346-0.045,0.684-0.066,1.014l-0.01,0.132
			c-0.021,0.307-0.043,0.601-0.064,0.891l-0.016,0.159c-0.023,0.307-0.047,0.603-0.074,0.891l-0.018,0.19
			c-0.025,0.293-0.055,0.58-0.084,0.853c-1.057,10.05-28.26,12.916-50.894,13.551H58z M7.685,74.924
			c0.021,0.367,0.042,0.726,0.062,1.077l0.013,0.215c0.021,0.342,0.042,0.68,0.065,1.005l0.01,0.137
			c0.021,0.298,0.042,0.59,0.064,0.876l0.01,0.114c0.026,0.348,0.052,0.641,0.077,0.924l0.016,0.164
			c0.029,0.313,0.056,0.597,0.083,0.865C8.852,87.578,26.577,92.072,58,92.955c31.424-0.883,49.148-5.377,49.914-12.653
			c0.027-0.27,0.057-0.553,0.082-0.841l0.018-0.189c0.025-0.284,0.051-0.577,0.074-0.878l0.012-0.161
			c0.023-0.285,0.045-0.577,0.066-0.878l0.01-0.132c0.021-0.329,0.043-0.665,0.064-1.009l0.012-0.213
			c0.023-0.352,0.043-0.71,0.061-1.077l0.004-0.052c0.02-0.366,0.037-0.741,0.057-1.121l0.008-0.162
			c0.018-0.391,0.037-0.785,0.051-1.187l0.008-0.172c0.016-0.406,0.031-0.81,0.049-1.22l0.002-0.054
			c0.014-0.402,0.029-0.821,0.041-1.243l0.195-9.017l0.021-1.705c0.014-0.974,0.02-1.955,0.027-2.942l0.033-9.741l-0.063-16.819
			c-0.008-1.432-0.012-2.766-0.014-3.977v-1.111l0.205-2.872c0.439-3.557,0.938-7.589-5.725-12.203
			c-0.119-0.094-8.951-6.937-45.218-7.282C21.596,2.392,12.905,9.231,12.822,9.3c-6.699,4.641-6.199,8.673-5.759,12.232l0.023,0.181
			l0.182,2.764l-0.001,1.035c-0.002,1.211-0.008,2.545-0.015,3.978L7.192,47.677l0.032,8.372c0.006,0.988,0.016,1.97,0.026,2.942
			l0.172,9.191c0.012,0.455,0.025,0.886,0.039,1.311l0.105,2.908c0.017,0.402,0.035,0.797,0.053,1.185l0.006,0.151
			c0.02,0.394,0.038,0.769,0.057,1.135L7.186,74.95L7.685,74.924z"/>
	</g>
</g>
</svg>
